<svg aria-hidden="true" style="position: absolute; width: 0; height: 0; overflow: hidden;" version="1.1" xmlns="http://www.w3.org/2000/svg" xmlns:xlink="http://www.w3.org/1999/xlink">
<defs>
<symbol id="icon-logo_GEDP" viewBox="0 0 54 32">
<path style="fill: var(--color1, #fff)" d="M7.543 23.338v-2.771h1.636v0.259h-1.332v0.93h0.947v0.259h-0.947v1.064h1.394v0.259h-1.698z"></path>
<path style="fill: var(--color1, #fff)" d="M9.733 23.338v-2.771h0.438l1.278 2.163v-2.163h0.286v2.771h-0.241l-1.475-2.458v2.458h-0.286z"></path>
<path style="fill: var(--color1, #fff)" d="M12.441 23.338v-2.771h1.635v0.259h-1.332v0.93h0.947v0.259h-0.947v1.064h1.394v0.259h-1.698z"></path>
<path style="fill: var(--color1, #fff)" d="M14.639 23.338v-2.771h0.778c0.384 0 0.67 0.063 0.849 0.179s0.268 0.304 0.268 0.554c0 0.179-0.045 0.331-0.143 0.447s-0.241 0.206-0.429 0.259l0.652 1.332h-0.349l-0.608-1.26h-0.715v1.26h-0.304zM15.417 20.818h-0.474v1.001h0.465c0.286 0 0.492-0.036 0.617-0.116s0.188-0.206 0.188-0.384c0-0.188-0.054-0.313-0.17-0.393-0.116-0.063-0.322-0.107-0.626-0.107z"></path>
<path style="fill: var(--color1, #fff)" d="M18.777 23.338l-0.009-0.304c-0.089 0.116-0.188 0.206-0.313 0.268-0.116 0.054-0.259 0.089-0.42 0.089-0.331 0-0.599-0.125-0.795-0.384-0.197-0.25-0.295-0.599-0.295-1.037 0-0.456 0.098-0.813 0.286-1.064 0.197-0.25 0.465-0.384 0.813-0.384 0.241 0 0.447 0.072 0.608 0.206s0.277 0.34 0.357 0.608l-0.313 0.063c-0.054-0.206-0.134-0.358-0.25-0.456-0.107-0.098-0.25-0.152-0.411-0.152-0.25 0-0.438 0.098-0.572 0.304-0.134 0.197-0.197 0.492-0.197 0.858s0.071 0.661 0.206 0.867c0.143 0.206 0.331 0.313 0.581 0.313 0.206 0 0.366-0.063 0.492-0.179s0.179-0.286 0.179-0.492v-0.206h-0.643v-0.268h0.956v1.35h-0.259z"></path>
<path style="fill: var(--color1, #fff)" d="M20.135 23.338v-1.171l-0.84-1.6h0.331l0.661 1.278 0.661-1.278h0.34l-0.849 1.6v1.171h-0.304z"></path>
<path style="fill: var(--color1, #fff)" d="M22.87 23.338v-2.771h1.627v0.259h-1.323v0.921h0.983v0.259h-0.983v1.332h-0.304z"></path>
<path style="fill: var(--color1, #fff)" d="M24.738 21.953c0-0.438 0.098-0.787 0.304-1.046 0.197-0.259 0.465-0.393 0.795-0.393s0.599 0.134 0.795 0.384c0.197 0.259 0.295 0.608 0.295 1.046s-0.098 0.787-0.295 1.046c-0.197 0.259-0.465 0.393-0.795 0.393s-0.599-0.125-0.795-0.393c-0.206-0.25-0.304-0.599-0.304-1.037zM25.051 21.953c0 0.366 0.071 0.652 0.206 0.858 0.143 0.206 0.331 0.304 0.581 0.304s0.438-0.107 0.581-0.304c0.143-0.206 0.206-0.492 0.206-0.858s-0.071-0.653-0.206-0.858c-0.143-0.206-0.331-0.304-0.581-0.304s-0.438 0.098-0.581 0.304c-0.143 0.197-0.206 0.483-0.206 0.858z"></path>
<path style="fill: var(--color1, #fff)" d="M27.473 20.568h0.304v1.788c0 0.125 0.009 0.223 0.018 0.286s0.027 0.116 0.054 0.17c0.054 0.098 0.134 0.179 0.241 0.232s0.232 0.080 0.384 0.080c0.152 0 0.277-0.027 0.384-0.080s0.188-0.134 0.241-0.232c0.027-0.054 0.045-0.107 0.054-0.179 0.009-0.063 0.018-0.179 0.018-0.322v-1.743h0.304v1.841c0 0.322-0.089 0.563-0.259 0.733s-0.42 0.25-0.751 0.25-0.581-0.080-0.742-0.25c-0.17-0.161-0.25-0.411-0.25-0.733v-1.841z"></path>
<path style="fill: var(--color1, #fff)" d="M30.207 23.338v-2.771h0.438l1.278 2.163v-2.163h0.286v2.771h-0.241l-1.475-2.458v2.458h-0.286z"></path>
<path style="fill: var(--color1, #fff)" d="M32.924 23.338v-2.771h0.661c0.215 0 0.384 0.018 0.518 0.054s0.25 0.089 0.357 0.17c0.152 0.116 0.277 0.277 0.357 0.474s0.125 0.429 0.125 0.688c0 0.456-0.116 0.805-0.357 1.037s-0.59 0.349-1.072 0.349h-0.59zM33.514 20.818h-0.286v2.244h0.25c0.206 0 0.375-0.018 0.492-0.045 0.125-0.027 0.223-0.080 0.313-0.143 0.116-0.089 0.206-0.215 0.268-0.375s0.089-0.34 0.089-0.545c0-0.223-0.027-0.411-0.089-0.572s-0.152-0.286-0.268-0.384c-0.080-0.063-0.179-0.107-0.286-0.143-0.116-0.018-0.277-0.036-0.483-0.036z"></path>
<path style="fill: var(--color1, #fff)" d="M35.221 23.338l0.858-2.771h0.465l0.849 2.771h-0.322l-0.25-0.867h-1.037l-0.241 0.867h-0.322zM35.864 22.221h0.876l-0.411-1.448h-0.045l-0.42 1.448z"></path>
<path style="fill: var(--color1, #fff)" d="M38.063 23.338v-2.512h-0.813v-0.268h1.93v0.268h-0.813v2.512h-0.304z"></path>
<path style="fill: var(--color1, #fff)" d="M39.672 23.338v-2.771h0.313v2.771h-0.313z"></path>
<path style="fill: var(--color1, #fff)" d="M40.547 21.953c0-0.438 0.098-0.787 0.295-1.046s0.465-0.393 0.795-0.393 0.599 0.134 0.796 0.384c0.196 0.259 0.295 0.608 0.295 1.046s-0.098 0.787-0.295 1.046c-0.197 0.259-0.465 0.393-0.796 0.393s-0.599-0.125-0.795-0.393c-0.197-0.25-0.295-0.599-0.295-1.037zM40.86 21.953c0 0.366 0.072 0.652 0.206 0.858 0.143 0.206 0.331 0.304 0.581 0.304 0.241 0 0.438-0.107 0.581-0.304 0.143-0.206 0.206-0.492 0.206-0.858s-0.072-0.653-0.206-0.858c-0.143-0.206-0.331-0.304-0.581-0.304-0.241 0-0.438 0.098-0.581 0.304-0.134 0.197-0.206 0.483-0.206 0.858z"></path>
<path style="fill: var(--color1, #fff)" d="M43.291 23.338v-2.771h0.438l1.278 2.163v-2.163h0.286v2.771h-0.241l-1.475-2.458v2.458h-0.286z"></path>
<path style="fill: var(--color1, #fff)" d="M13.969 26.145c0.116-0.045 0.223-0.116 0.313-0.223s0.161-0.206 0.223-0.304c0.054-0.098 0.125-0.232 0.214-0.393l0.089-0.161c0.134 0.063 0.268 0.125 0.411 0.161l-0.125 0.152c-0.098 0.116-0.295 0.375-0.59 0.769l0.974-0.054c-0.072-0.098-0.152-0.197-0.232-0.286l-0.080-0.089c0.072-0.045 0.179-0.116 0.322-0.223l0.617 0.867c-0.089 0.045-0.223 0.107-0.384 0.206l-0.027-0.054-0.027-0.063-0.036-0.072-0.724 0.063c-0.34 0.027-0.608 0.072-0.804 0.116-0.009-0.045-0.027-0.089-0.036-0.134-0.027-0.036-0.054-0.134-0.098-0.277zM14.183 29.148c0-0.116 0.009-0.224 0.009-0.313 0.009-0.089 0.009-0.17 0.009-0.223v-1.448c0-0.027 0-0.098-0.009-0.206l-0.009-0.232c0.179 0.009 0.34 0.018 0.474 0.018h0.661c0.125 0 0.295-0.009 0.492-0.018-0.009 0.107-0.018 0.188-0.018 0.241s0 0.125 0 0.215v1.529c0 0.054 0 0.116-0.009 0.179s-0.054 0.116-0.134 0.161c-0.080 0.045-0.25 0.080-0.518 0.098-0.009-0.125-0.027-0.206-0.036-0.241-0.009-0.045-0.045-0.116-0.089-0.223 0.089 0.027 0.188 0.036 0.286 0.036 0.089 0 0.143-0.018 0.152-0.054s0.009-0.072 0.009-0.107v-0.259h-0.903v0.34c0 0.134 0 0.215 0 0.25l0.018 0.259c-0.107-0.009-0.179-0.018-0.206-0.018-0.018 0-0.080 0.009-0.179 0.018zM14.549 27.369h0.903v-0.322h-0.903v0.322zM14.576 27.995h0.885v-0.322h-0.894l0.009 0.322zM16.408 25.081c0.054 0 0.125 0 0.214-0.009-0.009 0.107-0.018 0.197-0.018 0.259s0 0.134 0 0.223v0.259c0.295-0.125 0.527-0.25 0.697-0.375l0.134-0.098c0.063 0.098 0.161 0.206 0.295 0.34l-0.161 0.063c-0.152 0.054-0.474 0.197-0.965 0.411v0.188c0 0.045 0 0.089 0.009 0.116 0.009 0.036 0.054 0.054 0.125 0.063 0.036 0.009 0.089 0.009 0.17 0.009s0.143 0 0.206 0c0.054 0 0.098 0 0.125 0 0.098-0.009 0.161-0.036 0.188-0.080s0.054-0.179 0.080-0.384c0.045 0.054 0.080 0.098 0.125 0.134s0.134 0.080 0.268 0.125c-0.027 0.072-0.054 0.152-0.072 0.223-0.027 0.072-0.072 0.152-0.125 0.223-0.063 0.072-0.179 0.116-0.366 0.116-0.134 0.009-0.304 0.009-0.509 0-0.304 0-0.474-0.045-0.527-0.116-0.045-0.072-0.072-0.152-0.072-0.232v-0.974c0-0.134 0-0.215 0-0.25l-0.018-0.241c0.089 0.009 0.161 0.009 0.197 0.009zM16.417 26.985c0.018 0 0.089-0.009 0.214-0.018-0.009 0.107-0.018 0.197-0.018 0.259s0 0.134 0 0.224v0.313c0.313-0.125 0.563-0.259 0.76-0.393l0.098-0.072c0.098 0.143 0.188 0.25 0.268 0.331l-0.152 0.072c-0.027 0.009-0.089 0.036-0.188 0.080-0.107 0.045-0.366 0.152-0.786 0.322v0.474c0 0.036 0.009 0.054 0.036 0.072s0.161 0.018 0.429 0.018c0.161 0 0.25 0 0.286-0.009 0.027-0.009 0.054-0.018 0.072-0.045 0.018-0.018 0.027-0.054 0.045-0.107 0.009-0.054 0.018-0.080 0.027-0.089l0.009-0.116 0.018-0.152c0.080 0.089 0.134 0.152 0.179 0.17 0.045 0.027 0.116 0.054 0.223 0.089-0.018 0.054-0.054 0.125-0.089 0.224s-0.080 0.179-0.116 0.232c-0.036 0.063-0.107 0.098-0.206 0.125s-0.232 0.036-0.393 0.036c-0.411 0-0.652-0.018-0.724-0.045s-0.116-0.063-0.134-0.089c-0.018-0.036-0.027-0.072-0.036-0.107s-0.009-0.063-0.009-0.080v-1.225c0-0.134 0-0.224 0-0.259l-0.018-0.25c0.098 0.009 0.17 0.018 0.206 0.018z"></path>
<path style="fill: var(--color1, #fff)" d="M19.134 26.44c0.098-0.125 0.179-0.232 0.232-0.331l0.795 0.438c-0.107 0.116-0.17 0.197-0.188 0.241l-0.063 0.134-0.107-0.098c-0.018-0.018-0.089-0.063-0.214-0.143s-0.232-0.143-0.34-0.197l-0.116-0.045zM19.206 28.702l0.054-0.125c0.045-0.116 0.080-0.206 0.098-0.25s0.054-0.17 0.107-0.366c0.054-0.197 0.098-0.393 0.143-0.599l0.063-0.358c0.063 0.063 0.116 0.116 0.152 0.152 0.045 0.036 0.107 0.063 0.188 0.089l-0.036 0.152c-0.027 0.098-0.036 0.17-0.045 0.206l-0.054 0.223c-0.009 0.027-0.018 0.072-0.036 0.143s-0.036 0.152-0.054 0.241-0.036 0.179-0.054 0.268c-0.018 0.089-0.036 0.161-0.045 0.215s-0.018 0.089-0.018 0.107l-0.018 0.179c-0.188-0.125-0.331-0.215-0.447-0.277zM19.375 25.385c0.089-0.080 0.143-0.143 0.17-0.188l0.072-0.125 0.742 0.483c-0.054 0.045-0.089 0.072-0.107 0.098l-0.080 0.116-0.089 0.116-0.089-0.080c-0.179-0.152-0.349-0.268-0.492-0.358l-0.125-0.063zM19.804 28.809l0.116-0.152c0.063-0.080 0.107-0.161 0.143-0.224s0.072-0.143 0.107-0.25 0.080-0.241 0.125-0.411c0.045-0.17 0.072-0.366 0.089-0.581 0.009-0.215 0.018-0.411 0.027-0.581v-0.34c0-0.161 0-0.259 0-0.286s0-0.080 0-0.152c0-0.072 0-0.134 0-0.179l-0.018-0.384c0.241 0.018 0.384 0.018 0.438 0.018h1.689l0.599-0.018c-0.009 0.054-0.018 0.098-0.018 0.134 0 0.027 0 0.054 0 0.080 0 0.018 0.009 0.089 0.018 0.206-0.268-0.018-0.474-0.027-0.59-0.027h-0.429l-0.143 0.438h0.5c0.134 0 0.268-0.009 0.42-0.018-0.009 0.080-0.018 0.152-0.018 0.197s0 0.107 0 0.179v0.912c0 0.098 0 0.161 0 0.188l0.018 0.188c-0.241-0.018-0.393-0.018-0.438-0.018h-0.349v1.055c0 0.098-0.009 0.161-0.027 0.206-0.018 0.036-0.045 0.072-0.072 0.098-0.036 0.027-0.125 0.054-0.268 0.089-0.143 0.027-0.259 0.045-0.34 0.045 0-0.009 0-0.027 0-0.054s0-0.063-0.009-0.116c-0.009-0.054-0.018-0.098-0.045-0.134l-0.089-0.143c0.089 0.009 0.197 0.009 0.322 0.009 0.107 0 0.17-0.018 0.179-0.063s0.018-0.107 0.018-0.188v-0.813h-0.286c-0.054 0-0.188 0.009-0.402 0.018 0.009-0.080 0.018-0.152 0.018-0.197s0-0.107 0-0.179v-0.921c0-0.098 0-0.161 0-0.188l-0.018-0.179c0.143 0.018 0.277 0.018 0.402 0.018h0.161l0.098-0.438h-0.929c0 0.143 0 0.25 0 0.313v0.483l-0.009 0.241-0.009 0.42c-0.009 0.179-0.027 0.349-0.054 0.501s-0.045 0.268-0.063 0.34c-0.018 0.072-0.054 0.197-0.116 0.366s-0.107 0.295-0.143 0.366-0.089 0.188-0.161 0.331l-0.072 0.143c-0.036-0.054-0.072-0.107-0.107-0.152-0.063-0.054-0.143-0.116-0.268-0.197zM20.519 28.711l0.098-0.107c0.134-0.134 0.223-0.232 0.277-0.304 0.054-0.063 0.116-0.17 0.206-0.313l0.063-0.116c0.080 0.054 0.188 0.098 0.322 0.143l-0.071 0.107c-0.232 0.331-0.384 0.536-0.447 0.635l-0.080 0.125c-0.045-0.036-0.080-0.054-0.107-0.072-0.036-0.009-0.116-0.045-0.259-0.098zM21.413 26.735h1.028v-0.349h-1.028v0.349zM21.413 27.397h1.037v-0.358h-1.037v0.358zM22.584 27.915l0.599 0.742c-0.143 0.063-0.268 0.143-0.375 0.215l-0.063-0.125c-0.045-0.098-0.116-0.206-0.197-0.322s-0.152-0.206-0.206-0.277l-0.054-0.063c0.080-0.036 0.188-0.089 0.295-0.17z"></path>
<path style="fill: var(--color1, #fff)" d="M24.336 28.138c0.179-0.036 0.366-0.107 0.554-0.215s0.349-0.241 0.483-0.42h-0.438c-0.134 0-0.313 0.009-0.527 0.027 0.009-0.054 0.009-0.089 0.009-0.116s0-0.054 0-0.072c0-0.018 0-0.080-0.018-0.17 0.223 0.018 0.402 0.027 0.536 0.027h0.277v-1.368h-0.206c-0.143 0-0.286 0.009-0.42 0.027 0.009-0.045 0.009-0.080 0.009-0.098s0-0.036 0-0.063c0-0.018-0.009-0.072-0.009-0.161 0.206 0.018 0.349 0.027 0.42 0.027h0.215v-0.152c0-0.063 0-0.107 0-0.134l-0.018-0.179c0.125 0.009 0.197 0.018 0.214 0.018s0.072-0.009 0.179-0.018c-0.009 0.072-0.009 0.134-0.018 0.188 0 0.054-0.009 0.098-0.009 0.125v0.152h1.582v-0.143c0-0.080 0-0.134 0-0.161l-0.018-0.161c0.116 0.009 0.179 0.018 0.206 0.018 0.018 0 0.098-0.009 0.223-0.018-0.009 0.072-0.018 0.134-0.018 0.17s0 0.089 0 0.152v0.134h0.206c0.072 0 0.232-0.009 0.465-0.027-0.009 0.054-0.018 0.089-0.018 0.107 0 0.027 0 0.045-0.009 0.063 0 0.018 0.009 0.072 0.018 0.152-0.152-0.018-0.313-0.027-0.465-0.027h-0.206v1.368h0.25c0.134 0 0.322-0.009 0.554-0.027-0.009 0.054-0.018 0.098-0.018 0.125s0 0.054 0 0.072c0 0.018 0.009 0.072 0.018 0.17-0.232-0.018-0.42-0.027-0.554-0.027h-0.545c0.197 0.268 0.411 0.438 0.643 0.501 0.223 0.063 0.393 0.098 0.5 0.098h0.152c-0.125 0.098-0.206 0.179-0.25 0.232-0.045 0.063-0.089 0.134-0.134 0.215l-0.080-0.036c-0.241-0.107-0.492-0.25-0.76-0.438-0.009 0.036-0.018 0.063-0.018 0.080s0 0.036-0.009 0.054c0 0.018 0.009 0.063 0.018 0.125-0.17-0.018-0.313-0.018-0.447-0.018h-0.34v0.393h0.795c0.197 0 0.456-0.009 0.786-0.027-0.009 0.107-0.018 0.161-0.009 0.188l0.009 0.188c-0.304-0.027-0.563-0.036-0.786-0.036h-2.038c-0.179 0-0.411 0.009-0.697 0.027 0.009-0.045 0.009-0.089 0.009-0.116s0-0.054 0-0.063c0-0.018-0.009-0.080-0.018-0.188 0.268 0.018 0.5 0.027 0.688 0.027h0.903v-0.393h-0.42c-0.125 0-0.268 0.009-0.411 0.018 0.009-0.045 0.009-0.080 0.009-0.098 0-0.027 0-0.045 0-0.063s-0.009-0.072-0.018-0.17c-0.197 0.179-0.42 0.34-0.652 0.474l-0.071 0.045c-0.072-0.098-0.107-0.152-0.125-0.161-0.018-0.018-0.063-0.054-0.152-0.125l-0.107-0.080 0.125-0.018zM25.346 28.004c0.134 0.018 0.259 0.018 0.384 0.018h0.438v-0.152c0-0.018 0-0.054-0.009-0.134l-0.009-0.152c0.107 0.018 0.17 0.018 0.197 0.018 0.018 0 0.089-0.009 0.197-0.018-0.009 0.063-0.018 0.116-0.018 0.143 0 0.036 0 0.080 0 0.134v0.161h0.322c0.116 0 0.241-0.009 0.375-0.018-0.152-0.152-0.268-0.313-0.357-0.492h-1.037c-0.197 0.215-0.349 0.375-0.483 0.492zM25.56 26.109h1.582v-0.268h-1.582v0.268zM25.56 26.637h1.582v-0.259h-1.582v0.259zM25.56 27.209h1.582v-0.304h-1.582v0.304z"></path>
<path style="fill: var(--color1, #fff)" d="M29.492 26.672l0.134-0.063c0.223-0.098 0.447-0.223 0.67-0.366 0.232-0.143 0.429-0.331 0.599-0.563s0.295-0.438 0.357-0.608l0.045-0.116c0.161 0.054 0.322 0.107 0.492 0.152l-0.027 0.089c0.107 0.25 0.313 0.501 0.617 0.742s0.688 0.402 1.162 0.492l0.134 0.027c-0.080 0.089-0.143 0.17-0.17 0.232-0.036 0.063-0.072 0.143-0.107 0.241l-0.098-0.045c-0.304-0.134-0.518-0.232-0.626-0.295 0 0.045 0 0.080 0 0.107s0 0.045 0 0.054c0 0.018 0.009 0.063 0.018 0.143-0.286-0.018-0.456-0.018-0.5-0.018h-0.483v0.527h0.67c0.116 0 0.322-0.009 0.617-0.027-0.009 0.054-0.018 0.098-0.018 0.134 0 0.027 0 0.054 0 0.080 0 0.018 0.009 0.089 0.018 0.206-0.295-0.018-0.501-0.027-0.626-0.027h-0.661v0.876h0.313c0.116-0.25 0.197-0.456 0.241-0.608l0.071-0.241c0.143 0.080 0.286 0.152 0.438 0.206l-0.152 0.223-0.107 0.188-0.143 0.232h0.152c0.223 0 0.509-0.009 0.876-0.027-0.009 0.063-0.018 0.098-0.018 0.116s0 0.045 0 0.098v0.072l0.009 0.143c-0.447-0.027-0.742-0.036-0.867-0.036h-1.904c-0.134 0-0.429 0.009-0.876 0.036 0.009-0.054 0.009-0.098 0.009-0.134s0-0.063 0-0.080-0.009-0.089-0.018-0.215c0.366 0.018 0.661 0.027 0.876 0.027h0.706v-0.876h-0.572c-0.125 0-0.331 0.009-0.626 0.027 0.009-0.054 0.009-0.098 0.009-0.134v-0.072c0-0.054 0-0.080 0-0.080l-0.009-0.125c0.286 0.018 0.5 0.027 0.626 0.027h0.581v-0.527h-0.438c-0.054 0-0.215 0.009-0.474 0.018 0.009-0.063 0.018-0.107 0.018-0.134v-0.134c-0.125 0.089-0.286 0.197-0.492 0.331l-0.098 0.063c-0.063-0.080-0.116-0.152-0.152-0.197-0.045-0.063-0.116-0.107-0.197-0.161zM30.323 27.977c0.125-0.045 0.241-0.098 0.357-0.161l0.366 0.581c-0.134 0.054-0.259 0.107-0.384 0.17l-0.045-0.134c-0.036-0.089-0.098-0.188-0.179-0.304l-0.116-0.152zM30.609 26.485c0.134 0.018 0.259 0.018 0.384 0.018h1.108c0.125 0 0.25-0.009 0.393-0.018-0.25-0.179-0.447-0.34-0.59-0.492s-0.268-0.331-0.393-0.554c-0.107 0.161-0.223 0.313-0.34 0.465s-0.304 0.349-0.563 0.581z"></path>
<path style="fill: var(--color1, #fff)" d="M34.72 26.619l0.089-0.027c0.34-0.116 0.679-0.331 1.019-0.644 0.34-0.304 0.581-0.599 0.733-0.867l0.080-0.143c0.143 0.080 0.295 0.152 0.456 0.206l-0.099 0.107c0.125 0.206 0.34 0.429 0.635 0.688s0.679 0.438 1.144 0.527l0.080 0.018c-0.071 0.063-0.134 0.125-0.17 0.179-0.036 0.063-0.081 0.143-0.134 0.259l-0.116-0.054c-0.42-0.206-0.733-0.384-0.929-0.554-0.196-0.161-0.348-0.304-0.447-0.429s-0.205-0.259-0.304-0.402c-0.206 0.232-0.375 0.42-0.509 0.554-0.143 0.143-0.313 0.295-0.518 0.465 0.143 0.018 0.286 0.027 0.429 0.027h1.18c0.089 0 0.223-0.009 0.42-0.018-0.009 0.063-0.018 0.098-0.018 0.125s0 0.054 0 0.098c0 0.036 0.009 0.098 0.018 0.188-0.17-0.018-0.313-0.027-0.429-0.027h-1.18c-0.134 0-0.277 0.009-0.438 0.027 0.009-0.063 0.009-0.107 0.009-0.134v-0.080c0-0.045 0-0.072 0-0.072l-0.009-0.125c-0.125 0.089-0.25 0.179-0.366 0.268-0.116 0.080-0.188 0.134-0.214 0.152l-0.063 0.054c-0.045-0.116-0.17-0.241-0.349-0.366zM35.382 27.334c0.098 0.009 0.17 0.009 0.223 0.009h2.261c0.027 0 0.241-0.009 0.653-0.027-0.018 0.054-0.027 0.098-0.027 0.125s0 0.054 0 0.089 0 0.063 0.009 0.072l0.018 0.143c-0.277-0.018-0.491-0.027-0.653-0.027h-1.296c0.072 0.063 0.152 0.116 0.241 0.17l-0.161 0.116c-0.072 0.054-0.17 0.134-0.286 0.241s-0.25 0.223-0.411 0.34l-0.125 0.098c0.501-0.018 1.064-0.054 1.68-0.089-0.134-0.134-0.232-0.224-0.286-0.268l-0.152-0.125c0.125-0.063 0.241-0.143 0.34-0.223 0.349 0.349 0.688 0.688 1.019 1.019-0.152 0.080-0.286 0.17-0.429 0.268l-0.063-0.107-0.089-0.134-0.081-0.125-0.76 0.045c-0.635 0.036-1.028 0.063-1.189 0.089-0.161 0.018-0.313 0.045-0.465 0.080-0.009-0.054-0.018-0.098-0.036-0.152-0.009-0.054-0.054-0.143-0.107-0.277 0.116-0.045 0.259-0.116 0.42-0.224 0.161-0.098 0.402-0.349 0.715-0.751h-0.742c-0.134 0-0.322 0.009-0.572 0.027 0-0.054 0.009-0.107 0.009-0.143s0-0.063 0-0.080v-0.072l-0.009-0.134c0.134 0.018 0.25 0.018 0.349 0.027z"></path>
<path style="fill: var(--color1, #fff)" d="M26.311 2.118l-1.171 9.966-3.137-3.647c-0.036-0.045-0.098-0.054-0.143-0.027-0.054 0.027-0.072 0.089-0.054 0.143l1.555 4.21-9.679-4.004c-0.054-0.018-0.116 0-0.143 0.054s-0.018 0.116 0.036 0.152l7.069 4.97-9.259 0.116c-0.063 0-0.107 0.045-0.116 0.107s0.036 0.116 0.089 0.125l7.945 1.761-16.819 1.734c-0.063 0.009-0.107 0.063-0.107 0.125s0.054 0.107 0.116 0.107h13.647l6.712-0.706-2.878-0.805c-0.027-0.009-0.045-0.036-0.045-0.063s0.027-0.054 0.054-0.054l3.816 0.116-3.030-2.127c-0.027-0.018-0.036-0.054-0.018-0.080 0.009-0.018 0.027-0.027 0.054-0.027 0.009 0 0.018 0 0.027 0l4.174 1.725-0.67-1.806c-0.009-0.027 0-0.054 0.027-0.072 0.009-0.009 0.018-0.009 0.027-0.009 0.018 0 0.036 0.009 0.045 0.018l1.349 1.564 0.5-4.29c0-0.027 0.027-0.054 0.063-0.054 0.027 0 0.054 0.027 0.054 0.054l0.5 4.29 1.349-1.564c0.009-0.018 0.027-0.018 0.045-0.018 0.009 0 0.018 0 0.027 0.009 0.027 0.018 0.036 0.045 0.027 0.072l-0.67 1.806 4.174-1.725c0.009 0 0.018 0 0.027 0 0.018 0 0.036 0.009 0.054 0.027 0.018 0.027 0.009 0.063-0.018 0.080l-3.030 2.127 3.834-0.134c0.036 0 0.063 0.027 0.063 0.063 0 0.027-0.018 0.054-0.045 0.054l-2.86 0.813 6.828 0.715h13.629c0.063 0 0.116-0.045 0.116-0.107s-0.045-0.116-0.107-0.125l-16.802-1.734 7.945-1.761c0.054-0.009 0.099-0.063 0.089-0.125s-0.053-0.107-0.116-0.107l-9.276-0.116 7.087-4.97c0.053-0.036 0.063-0.098 0.036-0.152s-0.089-0.072-0.143-0.054l-9.697 4.004 1.573-4.21c0.018-0.054 0-0.116-0.054-0.143-0.045-0.027-0.107-0.018-0.152 0.027l-3.137 3.647-1.153-9.966c-0.009-0.063-0.054-0.098-0.116-0.098s-0.107 0.045-0.116 0.098z"></path>
</symbol>
</defs>
</svg>
