<svg aria-hidden="true" style="position: absolute; width: 0; height: 0; overflow: hidden;" version="1.1" xmlns="http://www.w3.org/2000/svg" xmlns:xlink="http://www.w3.org/1999/xlink">
<defs>
<symbol id="icon-Organization" viewBox="0 0 30 32">
<path fill="#fff" style="fill: var(--color1, #fff)" d="M0 0h29.714v32h-29.714v-32z"></path>
<path fill="#3a3f59" style="fill: var(--color2, #3a3f59)" d="M11.057 16.387h-2.65c-0.108 0-0.211-0.043-0.288-0.119s-0.119-0.18-0.119-0.288v-2.655c0-0.108 0.043-0.212 0.119-0.288s0.18-0.119 0.288-0.119h2.65c0.108 0 0.211 0.043 0.288 0.119s0.119 0.18 0.119 0.288v2.655c0 0.108-0.043 0.212-0.119 0.288s-0.18 0.119-0.288 0.119v0zM8.813 15.572h1.837v-1.84h-1.837v1.84z"></path>
<path fill="#3a3f59" style="fill: var(--color2, #3a3f59)" d="M11.057 12.155h-2.65c-0.108 0-0.211-0.043-0.288-0.119s-0.119-0.18-0.119-0.288v-2.655c0-0.108 0.043-0.212 0.119-0.288s0.18-0.119 0.288-0.119h2.65c0.108 0 0.211 0.043 0.288 0.119s0.119 0.18 0.119 0.288v2.655c0 0.108-0.043 0.212-0.119 0.288s-0.18 0.119-0.288 0.119v0zM8.813 11.34h1.837v-1.84h-1.837v1.84z"></path>
<path fill="#3a3f59" style="fill: var(--color2, #3a3f59)" d="M11.057 20.619h-2.65c-0.108 0-0.211-0.043-0.288-0.119s-0.119-0.18-0.119-0.288v-2.655c0-0.108 0.043-0.212 0.119-0.288s0.18-0.119 0.288-0.119h2.65c0.108 0 0.211 0.043 0.288 0.119s0.119 0.18 0.119 0.288v2.655c0 0.108-0.043 0.212-0.119 0.288s-0.18 0.119-0.288 0.119v0zM8.813 19.804h1.837v-1.84h-1.837v1.84z"></path>
<path fill="#3a3f59" style="fill: var(--color2, #3a3f59)" d="M11.057 24.85h-2.65c-0.108 0-0.211-0.043-0.288-0.119s-0.119-0.18-0.119-0.288v-2.655c0-0.108 0.043-0.212 0.119-0.288s0.18-0.119 0.288-0.119h2.65c0.108 0 0.211 0.043 0.288 0.119s0.119 0.18 0.119 0.288v2.655c0 0.108-0.043 0.212-0.119 0.288s-0.18 0.119-0.288 0.119v0zM8.813 24.035h1.837v-1.84h-1.837v1.84z"></path>
<path fill="#3a3f59" style="fill: var(--color2, #3a3f59)" d="M22.485 16.484h-2.65c-0.108 0-0.211-0.043-0.288-0.119s-0.119-0.18-0.119-0.288v-2.655c0-0.108 0.043-0.212 0.119-0.288s0.18-0.119 0.288-0.119h2.65c0.108 0 0.211 0.043 0.288 0.119s0.119 0.18 0.119 0.288v2.655c0 0.108-0.043 0.212-0.119 0.288s-0.18 0.119-0.288 0.119v0zM20.242 15.669h1.837v-1.84h-1.837v1.84z"></path>
<path fill="#3a3f59" style="fill: var(--color2, #3a3f59)" d="M22.485 20.716h-2.65c-0.108 0-0.211-0.043-0.288-0.119s-0.119-0.18-0.119-0.288v-2.655c0-0.108 0.043-0.212 0.119-0.288s0.18-0.119 0.288-0.119h2.65c0.108 0 0.211 0.043 0.288 0.119s0.119 0.18 0.119 0.288v2.655c0 0.108-0.043 0.212-0.119 0.288s-0.18 0.119-0.288 0.119zM20.242 19.901h1.837v-1.84h-1.837v1.84z"></path>
<path fill="#3a3f59" style="fill: var(--color2, #3a3f59)" d="M22.485 24.947h-2.65c-0.108 0-0.211-0.043-0.288-0.119s-0.119-0.18-0.119-0.288v-2.656c0-0.108 0.043-0.212 0.119-0.288s0.18-0.119 0.288-0.119h2.65c0.108 0 0.211 0.043 0.288 0.119s0.119 0.18 0.119 0.288v2.655c0 0.054-0.010 0.107-0.031 0.156s-0.050 0.095-0.088 0.132c-0.038 0.038-0.083 0.068-0.132 0.088s-0.102 0.031-0.156 0.031zM20.242 24.132h1.836v-1.841h-1.836v1.841z"></path>
<path fill="none" stroke="#3a3f59" style="stroke: var(--color2, #3a3f59)" stroke-linejoin="miter" stroke-linecap="butt" stroke-miterlimit="4" stroke-width="1.2571" d="M16 10.286h9.143c0.631 0 1.143 0.512 1.143 1.143v17.143c0 0.631-0.512 1.143-1.143 1.143h-9.143v-19.429z"></path>
<path fill="none" stroke="#3a3f59" style="stroke: var(--color2, #3a3f59)" stroke-linejoin="round" stroke-linecap="butt" stroke-miterlimit="4" stroke-width="1.2571" d="M3.429 4.571c0-0.631 0.512-1.143 1.143-1.143h10.286c0.631 0 1.143 0.512 1.143 1.143v25.143h-11.429c-0.631 0-1.143-0.512-1.143-1.143v-24z"></path>
</symbol>
<symbol id="icon-Title" viewBox="0 0 30 32">
<path fill="#fff" style="fill: var(--color1, #fff)" d="M0 0h29.714v32h-29.714v-32z"></path>
<path fill="#3a3f59" style="fill: var(--color2, #3a3f59)" d="M22.286 3.429h-16c-0.943 0-1.714 0.771-1.714 1.714v18.286c0 0.143 0.057 0.286 0.171 0.4l5.143 5.143c0.114 0.114 0.257 0.171 0.4 0.171h12c0.943 0 1.714-0.771 1.714-1.714l-0-22.285c0-0.943-0.771-1.714-1.714-1.714zM9.714 27.2l-3.2-3.2h2.629c0.314 0 0.571 0.257 0.571 0.571v2.629zM22.857 27.428c0 0.314-0.257 0.571-0.571 0.571l-11.428 0v-3.429c0-0.943-0.771-1.714-1.714-1.714l-3.428 0v-17.714c0-0.314 0.257-0.571 0.571-0.571h16c0.314 0 0.571 0.257 0.571 0.571l0 22.285zM18.571 6.285c-1.429 0-2.571 1.143-2.571 2.571 0 0.6 0.229 1.171 0.571 1.6v4.4c0 0.229 0.114 0.428 0.314 0.514s0.428 0.057 0.6-0.057l1.086-0.857 1.086 0.857c0.114 0.086 0.229 0.114 0.343 0.114 0.086 0 0.171-0.028 0.257-0.057 0.2-0.086 0.314-0.286 0.314-0.514l-0-4.4c0.343-0.428 0.571-1 0.571-1.6 0-1.429-1.143-2.572-2.571-2.572zM19.429 13.657l-0.514-0.4c-0.086-0.086-0.229-0.114-0.343-0.114s-0.257 0.029-0.343 0.114l-0.514 0.4v-2.4c0.257 0.086 0.571 0.143 0.857 0.143s0.6-0.057 0.857-0.143v2.4zM18.571 10.285c-0.8 0-1.429-0.629-1.429-1.429s0.629-1.429 1.429-1.429c0.8 0 1.429 0.629 1.429 1.429s-0.629 1.429-1.429 1.429zM7.429 6.857c0-0.314 0.257-0.571 0.571-0.571h5.714c0.314 0 0.571 0.257 0.571 0.571s-0.257 0.571-0.571 0.571h-5.714c-0.314 0-0.571-0.257-0.571-0.571zM7.429 9.714c0-0.314 0.257-0.571 0.571-0.571h5.714c0.314 0 0.571 0.257 0.571 0.571s-0.257 0.571-0.571 0.571h-5.714c-0.314 0-0.571-0.257-0.571-0.571zM7.429 12.571c0-0.314 0.257-0.571 0.571-0.571h5.714c0.314 0 0.571 0.257 0.571 0.571s-0.257 0.571-0.571 0.571h-5.714c-0.314 0-0.571-0.257-0.571-0.571zM21.143 20.571c0 0.314-0.257 0.571-0.571 0.571h-12.857c-0.314 0-0.571-0.257-0.571-0.571s0.257-0.571 0.571-0.571h12.857c0.314 0 0.571 0.257 0.571 0.571zM21.143 17.714c0 0.314-0.257 0.571-0.571 0.571h-12.857c-0.314 0-0.571-0.257-0.571-0.571s0.257-0.571 0.571-0.571h12.857c0.314 0 0.571 0.257 0.571 0.571z"></path>
</symbol>
</defs>
</svg>
