<svg width="118" height="116" viewBox="0 0 118 116" fill="none" xmlns="http://www.w3.org/2000/svg">
<rect width="118" height="116" fill="white"/>
<path d="M98.2812 41.6423C98.7174 41.8157 99.2122 41.6091 99.3875 41.1811C99.5628 40.7532 99.3518 40.2661 98.9156 40.0926C98.4794 39.9192 97.9846 40.1259 97.8093 40.5538C97.6347 40.9818 97.8464 41.4695 98.2812 41.6423Z" fill="#009DCD"/>
<path d="M51.663 102.118C51.4567 102.118 51.2896 101.953 51.2896 101.749C51.2896 101.546 51.4567 101.381 51.663 101.381C64.8568 101.381 76.0024 97.6746 76.0024 93.2861C76.0024 93.0828 76.1696 92.918 76.3759 92.918C76.5822 92.918 76.7494 93.0828 76.7494 93.2861C76.7494 98.2381 65.7299 102.118 51.663 102.118Z" fill="#009DCD"/>
<path d="M51.6631 106.754C49.5111 106.754 47.5095 106.684 45.3649 106.533C45.1593 106.518 45.0042 106.342 45.019 106.139C45.0332 105.936 45.2173 105.779 45.4182 105.798C47.5452 105.948 49.5293 106.018 51.6631 106.018C62.3974 106.018 72.5189 104.026 78.7369 100.691C78.9183 100.595 79.1455 100.66 79.2439 100.838C79.3423 101.017 79.2756 101.241 79.0942 101.338C72.7711 104.729 62.5168 106.754 51.6631 106.754Z" fill="#009DCD"/>
<path d="M81.9014 89.828C81.8145 89.828 81.7282 89.7987 81.6581 89.7389C79.5378 87.9374 76.2033 86.3339 72.0146 85.1026C71.817 85.0441 71.7044 84.8394 71.7631 84.6447C71.8224 84.4507 72.0314 84.3424 72.2276 84.3969C76.5167 85.6581 79.947 87.3128 82.1448 89.1814C82.3019 89.3143 82.3181 89.5462 82.1839 89.7004C82.1104 89.7848 82.0059 89.828 81.9014 89.828Z" fill="#009DCD"/>
<path d="M30.9818 104.03C30.9467 104.03 30.9103 104.025 30.8746 104.014C22.9239 101.664 18.3638 98.1018 18.3638 94.2423C18.3638 92.4674 19.2604 90.836 21.105 89.2544C21.2607 89.1209 21.496 89.1375 21.6315 89.2903C21.767 89.4431 21.7502 89.6764 21.5944 89.8093C19.9225 91.2433 19.1094 92.6926 19.1094 94.2423C19.1094 97.7536 23.4754 101.058 31.0876 103.31C31.2851 103.368 31.3971 103.573 31.3377 103.767C31.2905 103.928 31.1422 104.03 30.9818 104.03Z" fill="#009DCD"/>
<path d="M78.2137 59.287C76.2741 59.287 75.2271 53.9788 75.2271 48.9843C75.2271 44.0224 76.1615 38.6816 78.2137 38.6816C80.2659 38.6816 81.2003 44.0224 81.2003 48.9843C81.2003 53.9469 80.2659 59.287 78.2137 59.287ZM78.2137 39.4173C77.2981 39.4173 75.974 42.8242 75.974 48.9843C75.974 54.8241 77.3002 58.5513 78.2137 58.5513C79.1292 58.5513 80.4533 55.145 80.4533 48.9843C80.454 42.8242 79.1299 39.4173 78.2137 39.4173Z" fill="#009DCD"/>
<path d="M102.618 41.8488L99.5518 23.5567C98.2438 18.2087 93.7754 14.3704 88.1837 13.781L36.1584 5.63868C35.6171 5.55628 35.1236 5.85199 34.9557 6.36633C34.7885 6.88 35.0137 7.40762 35.5031 7.64884L56.9603 18.2067C57.0453 18.4871 57.1477 18.8101 57.2725 19.1749C57.6797 20.3677 58.393 22.2077 59.4777 24.198C61.3978 27.7232 64.8705 32.3954 70.5107 34.6388C71.6986 35.1106 72.8346 35.4668 73.9194 35.7379H68.8347C67.7546 35.7379 66.7703 36.6397 65.9728 38.1661H57.71C48.6119 38.1661 41.2094 45.4292 41.2094 54.3564V82.3697C39.4559 82.6149 37.5736 82.9299 35.3157 83.3578C35.1128 83.3964 34.9806 83.5891 35.0191 83.7891C35.0535 83.9652 35.2099 84.0875 35.3852 84.0875C35.4088 84.0875 35.4324 84.0855 35.4559 84.0808C37.6572 83.6635 39.4977 83.3538 41.2094 83.1126V85.3221C32.2664 86.7429 26.5015 89.8821 26.5015 93.3595C26.5015 95.6859 29.0027 97.8476 33.544 99.4458C33.5851 99.4611 33.6276 99.467 33.6694 99.467C33.8231 99.467 33.9667 99.3733 34.0206 99.2225C34.0901 99.0311 33.9889 98.8205 33.7948 98.7527C29.6344 97.2881 27.2485 95.3225 27.2485 93.3588C27.2485 90.3233 32.8435 87.4167 41.2094 86.0677V93.4326C41.2094 95.6547 46.768 96.8176 52.2593 96.8176C57.7505 96.8176 63.3098 95.6547 63.3098 93.4326V86.2837C66.7892 86.9269 69.6976 87.8307 71.9487 88.9757C72.0033 89.0036 72.062 89.0168 72.12 89.0168C72.2548 89.0168 72.3856 88.9444 72.4517 88.8175C72.5467 88.6374 72.4746 88.4148 72.2912 88.3218C69.9457 87.1283 66.922 86.192 63.3098 85.5341V60.6845C63.3098 59.927 63.9597 59.2864 64.7282 59.2864H66.0847C66.862 60.6832 67.8059 61.4939 68.8347 61.4939H78.8395C81.5605 61.4939 83.6923 55.8376 83.6923 48.6156C83.6923 42.8689 82.3399 38.1242 80.4178 36.4211C81.5895 36.3659 82.6183 36.2171 83.4826 36.0336C85.0804 35.6941 86.3068 35.205 87.0544 34.8548C87.3787 34.7026 87.6821 34.5458 87.9552 34.3876L89.9555 40.0055L85.7405 42.8303C85.3353 43.1021 85.1667 43.5919 85.3211 44.0484C85.4755 44.5115 85.8982 44.7933 86.3951 44.7807L91.6524 44.566C92.1594 46.2944 93.1369 47.3975 94.7132 48.0242C95.4103 48.3013 96.1424 48.4415 96.8881 48.4415C99.2699 48.4415 101.384 47.0414 102.271 44.8737C102.658 43.9288 102.778 42.8822 102.618 41.8488ZM35.8045 7.0541C35.6164 6.96107 35.5335 6.76637 35.5975 6.569C35.6622 6.36832 35.8416 6.26067 36.0512 6.29389L88.0947 14.4382C88.2053 14.4502 88.3125 14.4708 88.4224 14.4854L86.1167 19.6208C84.9422 22.237 82.7909 24.2132 80.0618 25.1854C77.3314 26.1569 74.3967 25.9921 71.7977 24.7209L57.4666 17.7123L35.8045 7.0541ZM64.7282 58.5508C63.5545 58.5508 62.5634 59.5283 62.5634 60.6845V93.4339C62.5634 94.6865 58.3323 96.0827 52.2599 96.0827C46.1882 96.0827 41.9564 94.6865 41.9564 93.4339V54.3557C41.9564 45.8339 49.0232 38.9017 57.71 38.9017H65.6236C64.6136 41.2454 63.9819 44.695 63.9819 48.6163C63.9819 52.6578 64.65 56.207 65.7152 58.5514H64.7282V58.5508ZM82.9467 48.6156C82.9467 55.8794 80.8237 60.7583 78.8402 60.7583H68.8354C66.8519 60.7583 64.7289 55.8794 64.7289 48.6156C64.7289 41.3518 66.8519 36.4729 68.8354 36.4729H78.8402C80.823 36.4729 82.9467 41.3524 82.9467 48.6156ZM101.645 44.6252C100.861 46.5396 98.9935 47.777 96.8874 47.777C96.228 47.777 95.5815 47.6527 94.9646 47.4075C93.5273 46.836 92.6596 45.798 92.2328 44.1407L92.1654 43.8789L86.3675 44.1162C86.1497 44.1215 86.0209 44.0225 85.9603 43.8391C85.9009 43.6636 85.9629 43.4829 86.118 43.3792L90.7611 40.2673L88.3064 33.3716L87.8675 33.6593C87.8196 33.6899 87.7468 33.7364 87.6484 33.7942C87.4657 33.9012 87.1637 34.0673 86.7639 34.2554C86.0486 34.5903 84.8741 35.0581 83.3397 35.3844C82.2111 35.6243 80.792 35.8011 79.1308 35.7752C79.0337 35.7605 78.9373 35.7373 78.8389 35.7373H78.131C75.9985 35.6004 73.5182 35.1173 70.7628 34.0215C65.3087 31.8532 61.9378 27.3112 60.071 23.883C59.0085 21.9333 58.31 20.1311 57.9102 18.9622C57.8678 18.8386 57.8334 18.7297 57.7963 18.616L71.4964 25.317C73.0733 26.0885 74.7661 26.4772 76.4684 26.4772C77.7514 26.4772 79.0411 26.256 80.2897 25.8114C83.1948 24.7767 85.4823 22.6742 86.7322 19.8906L89.1127 14.5877C93.9513 15.4795 97.7355 18.9675 98.8904 23.6889L101.95 41.9512C102.093 42.8662 101.987 43.7912 101.645 44.6252Z" fill="#009DCD"/>
</svg>
