<svg width="185" height="158" viewBox="0 0 185 158" fill="none" xmlns="http://www.w3.org/2000/svg">
<g filter="url(#filter0_f)">
<ellipse cx="78.5" cy="129.5" rx="49.5" ry="4.5" fill="black" fill-opacity="0.18" style="mix-blend-mode:multiply"/>
</g>
<path fill-rule="evenodd" clip-rule="evenodd" d="M99.8011 119.867H156.755C160.41 119.867 163.372 116.887 163.372 113.21V6.65621C163.372 2.98007 160.409 0 156.755 0H6.61657C2.96233 0 0 2.98007 0 6.65621V113.211C0 116.887 2.96233 119.867 6.61657 119.867H63.5705V121.499C63.5705 123.258 62.8757 124.945 61.64 126.189L56.2352 131.626C54.9219 132.947 55.8522 135.205 57.7093 135.205H74.6334H81.6865H105.664C107.519 135.205 108.45 132.946 107.136 131.626L101.732 126.189C100.495 124.945 99.8011 123.258 99.8011 121.499V119.867Z" fill="#00B2DE"/>
<path d="M148.774 115.447H87.2926C84.1963 115.447 81.686 112.922 81.686 109.807V15.4136C81.686 12.2987 84.1963 9.77344 87.2926 9.77344H148.774C151.871 9.77344 154.381 12.2987 154.381 15.4136V109.807C154.381 112.922 151.871 115.447 148.774 115.447Z" fill="#0A9DC1"/>
<path d="M152.962 113.254H88.4291C86.1749 113.254 84.3481 111.415 84.3481 109.148V11.6855C84.3481 9.41779 86.1756 7.58008 88.4291 7.58008H152.962C155.216 7.58008 157.043 9.4185 157.043 11.6855V109.147C157.043 111.415 155.216 113.254 152.962 113.254Z" fill="white"/>
<path d="M70.7167 113.867H9.23498C6.13864 113.867 3.62842 111.342 3.62842 108.227V13.8335C3.62842 10.7186 6.13864 8.19336 9.23498 8.19336H70.7167C73.813 8.19336 76.3232 10.7186 76.3232 13.8335V108.227C76.3232 111.342 73.813 113.867 70.7167 113.867Z" fill="#0A9DC1"/>
<path d="M74.9039 111.673H10.371C8.11681 111.673 6.29004 109.835 6.29004 107.568V10.1054C6.29004 7.83771 8.11751 6 10.371 6H74.9039C77.1581 6 78.9849 7.83842 78.9849 10.1054V107.567C78.9849 109.835 77.1574 111.673 74.9039 111.673Z" fill="white"/>
<path d="M16.5923 59.7402V90.4066H68.682" stroke="#F8981C" stroke-miterlimit="10" stroke-linecap="round" stroke-linejoin="round"/>
<path d="M23.5621 80.6172H20.4438V90.406H23.5621V80.6172Z" fill="#F8981C"/>
<path d="M32.0542 76.2539H28.936V90.4071H32.0542V76.2539Z" fill="#F8981C"/>
<path d="M40.4917 72.5703H37.3735V90.4061H40.4917V72.5703Z" fill="#F8981C"/>
<path d="M49.0201 75.8555H45.9019V90.4075H49.0201V75.8555Z" fill="#F8981C"/>
<path d="M57.732 78.8672H54.6138V90.4058H57.732V78.8672Z" fill="#F8981C"/>
<path d="M66.2613 67.0312H63.1431V90.4064H66.2613V67.0312Z" fill="#F8981C"/>
<path d="M21.1318 92.1035H22.8753C23.2548 92.1035 23.5623 92.4129 23.5623 92.7946C23.5623 93.1763 23.2548 93.4857 22.8753 93.4857H21.1318C20.7523 93.4857 20.4448 93.1763 20.4448 92.7946C20.4441 92.4129 20.7516 92.1035 21.1318 92.1035Z" fill="#F8981C"/>
<path d="M29.623 92.1035H31.3666C31.746 92.1035 32.0535 92.4129 32.0535 92.7946C32.0535 93.1763 31.746 93.4857 31.3666 93.4857H29.623C29.2436 93.4857 28.936 93.1763 28.936 92.7946C28.936 92.4129 29.2436 92.1035 29.623 92.1035Z" fill="#F8981C"/>
<path d="M38.0605 92.1035H39.8041C40.1835 92.1035 40.491 92.4129 40.491 92.7946C40.491 93.1763 40.1835 93.4857 39.8041 93.4857H38.0605C37.6811 93.4857 37.3735 93.1763 37.3735 92.7946C37.3735 92.4129 37.6811 92.1035 38.0605 92.1035Z" fill="#F8981C"/>
<path d="M46.5888 92.1035H48.3324C48.7118 92.1035 49.0194 92.4129 49.0194 92.7946C49.0194 93.1763 48.7118 93.4857 48.3324 93.4857H46.5888C46.2094 93.4857 45.9019 93.1763 45.9019 92.7946C45.9019 92.4129 46.2094 92.1035 46.5888 92.1035Z" fill="#F8981C"/>
<path d="M55.3017 92.1035H57.0453C57.4247 92.1035 57.7322 92.4129 57.7322 92.7946C57.7322 93.1763 57.4247 93.4857 57.0453 93.4857H55.3017C54.9223 93.4857 54.6147 93.1763 54.6147 92.7946C54.614 92.4129 54.9216 92.1035 55.3017 92.1035Z" fill="#F8981C"/>
<path d="M63.831 92.1035H65.5746C65.954 92.1035 66.2615 92.4129 66.2615 92.7946C66.2615 93.1763 65.954 93.4857 65.5746 93.4857H63.831C63.4516 93.4857 63.144 93.1763 63.144 92.7946C63.1433 92.4129 63.4516 92.1035 63.831 92.1035Z" fill="#F8981C"/>
<path d="M36.8102 27.6537H16.6763C16.1642 27.6537 15.7495 27.2365 15.7495 26.7214C15.7495 26.2063 16.1642 25.7891 16.6763 25.7891H36.8102C37.3223 25.7891 37.737 26.2063 37.737 26.7214C37.737 27.2358 37.3223 27.6537 36.8102 27.6537Z" fill="#C9E6E8"/>
<path d="M68.6009 34.4467H23.8013C23.2892 34.4467 22.8745 34.0295 22.8745 33.5144C22.8745 32.9992 23.2892 32.582 23.8013 32.582H68.6009C69.1129 32.582 69.5276 32.9992 69.5276 33.5144C69.5276 34.0288 69.1122 34.4467 68.6009 34.4467Z" fill="#C9E6E8"/>
<path d="M68.6003 41.2377H16.6763C16.1642 41.2377 15.7495 40.8205 15.7495 40.3054C15.7495 39.7903 16.1642 39.373 16.6763 39.373H68.6003C69.1123 39.373 69.527 39.7903 69.527 40.3054C69.527 40.8198 69.1116 41.2377 68.6003 41.2377Z" fill="#C9E6E8"/>
<path d="M106.897 43.1726C114.501 43.1726 120.665 36.9713 120.665 29.3217C120.665 21.672 114.501 15.4707 106.897 15.4707C99.2928 15.4707 93.1284 21.672 93.1284 29.3217C93.1284 36.9713 99.2928 43.1726 106.897 43.1726Z" fill="#F8981C"/>
<path d="M116.792 38.9324C119.175 36.3274 120.665 33.0092 120.665 29.3217C120.665 21.6721 114.5 15.4707 106.896 15.4707V29.3217L116.792 38.9324Z" fill="#1B5183"/>
<path d="M106.896 29.3223L98.394 40.2031C100.736 42.0578 103.684 43.1739 106.897 43.1739C110.785 43.1739 114.29 41.5455 116.794 38.938L106.896 29.3223Z" fill="#2A8FAF"/>
<path d="M93.6858 25.4434C93.3289 26.6751 93.1279 27.9743 93.1279 29.3224C93.1279 33.7173 95.1684 37.6262 98.3416 40.1635L106.896 29.3224L93.6858 25.4434Z" fill="#C9E6E8"/>
<path d="M106.897 36.2482C110.699 36.2482 113.781 33.1474 113.781 29.3223C113.781 25.4973 110.699 22.3965 106.897 22.3965C103.095 22.3965 100.012 25.4973 100.012 29.3223C100.012 33.1474 103.095 36.2482 106.897 36.2482Z" fill="white"/>
<path d="M106.897 70.3516C110.825 70.3516 114.009 67.1485 114.009 63.1973C114.009 59.2461 110.825 56.043 106.897 56.043C102.969 56.043 99.7852 59.2461 99.7852 63.1973C99.7852 67.1485 102.969 70.3516 106.897 70.3516Z" fill="#F8981C"/>
<path d="M112.057 68.1101C113.264 66.828 114.008 65.1017 114.008 63.1973C114.008 59.2465 110.824 56.043 106.896 56.043V63.1973L112.057 68.1101Z" fill="#1B5183"/>
<path d="M106.897 63.1973L102.506 68.8168C103.715 69.7747 105.238 70.3509 106.897 70.3509C108.905 70.3509 110.716 69.5101 112.009 68.1633L106.897 63.1973Z" fill="#2A8FAF"/>
<path d="M100.074 61.1934C99.8898 61.8298 99.7861 62.5003 99.7861 63.1964C99.7861 65.4662 100.84 67.4856 102.479 68.7961L106.897 63.1964L100.074 61.1934Z" fill="#C9E6E8"/>
<path d="M106.897 66.7747C108.861 66.7747 110.453 65.1733 110.453 63.1979C110.453 61.2225 108.861 59.6211 106.897 59.6211C104.934 59.6211 103.342 61.2225 103.342 63.1979C103.342 65.1733 104.934 66.7747 106.897 66.7747Z" fill="white"/>
<path d="M106.897 97.5313C110.825 97.5313 114.009 94.3282 114.009 90.377C114.009 86.4258 110.825 83.2227 106.897 83.2227C102.969 83.2227 99.7852 86.4258 99.7852 90.377C99.7852 94.3282 102.969 97.5313 106.897 97.5313Z" fill="#F8981C"/>
<path d="M112.057 95.2898C113.264 94.0077 114.008 92.2814 114.008 90.377C114.008 86.4262 110.824 83.2227 106.896 83.2227V90.377L112.057 95.2898Z" fill="#1B5183"/>
<path d="M106.897 90.377L102.506 95.9965C103.715 96.9544 105.238 97.5305 106.897 97.5305C108.905 97.5305 110.716 96.6897 112.009 95.343L106.897 90.377Z" fill="#2A8FAF"/>
<path d="M100.074 88.373C99.8898 89.0095 99.7861 89.68 99.7861 90.3761C99.7861 92.6459 100.84 94.6653 102.479 95.9758L106.897 90.3761L100.074 88.373Z" fill="#C9E6E8"/>
<path d="M106.897 93.9544C108.861 93.9544 110.453 92.353 110.453 90.3776C110.453 88.4022 108.861 86.8008 106.897 86.8008C104.934 86.8008 103.342 88.4022 103.342 90.3776C103.342 92.353 104.934 93.9544 106.897 93.9544Z" fill="white"/>
<path d="M108.146 41.4434L109.639 43.213C112.286 46.3491 116.17 48.157 120.26 48.157H147.53" stroke="#2A8FAF" stroke-miterlimit="10" stroke-linecap="round" stroke-linejoin="round"/>
<path d="M147.336 46.5307H125.522C125.009 46.5307 124.595 46.1135 124.595 45.5984C124.595 45.0832 125.009 44.666 125.522 44.666H147.336C147.848 44.666 148.263 45.0832 148.263 45.5984C148.263 46.1135 147.848 46.5307 147.336 46.5307Z" fill="#2A8FAF"/>
<path d="M119.407 19.5611L119.169 19.1215L119.169 19.1215L119.407 19.5611ZM147.973 18.791C148.249 18.791 148.473 18.5672 148.473 18.291C148.473 18.0149 148.249 17.791 147.973 17.791V18.791ZM115.574 22.208L119.646 20.0007L119.169 19.1215L115.097 21.3289L115.574 22.208ZM119.645 20.0007C121.111 19.2066 122.748 18.791 124.413 18.791V17.791C122.582 17.791 120.78 18.2482 119.169 19.1215L119.645 20.0007ZM124.413 18.791H147.973V17.791H124.413V18.791Z" fill="#1B5183"/>
<path d="M137.269 16.6635H125.522C125.009 16.6635 124.595 16.2463 124.595 15.7312C124.595 15.216 125.009 14.7988 125.522 14.7988H137.269C137.781 14.7988 138.196 15.216 138.196 15.7312C138.196 16.2463 137.781 16.6635 137.269 16.6635Z" fill="#1B5183"/>
<path d="M136.831 42.3744H125.521C125.009 42.3744 124.594 41.9572 124.594 41.4421C124.594 40.927 125.009 40.5098 125.521 40.5098H136.831C137.343 40.5098 137.758 40.927 137.758 41.4421C137.758 41.9565 137.343 42.3744 136.831 42.3744Z" fill="#2A8FAF"/>
<g filter="url(#filter1_d)">
<path d="M164.365 118.733C174.397 118.733 182.529 110.601 182.529 100.569C182.529 90.5367 174.397 82.4043 164.365 82.4043C154.333 82.4043 146.201 90.5367 146.201 100.569C146.201 110.601 154.333 118.733 164.365 118.733Z" fill="url(#paint0_linear)"/>
</g>
<path d="M164.38 92.0801V132.827" stroke="#C9E6E8" stroke-miterlimit="10" stroke-linecap="round"/>
<path d="M164.38 97.4934L170.245 93.8145" stroke="#C9E6E8" stroke-miterlimit="10" stroke-linecap="round"/>
<path d="M164.38 113.995L170.245 110.316" stroke="#C9E6E8" stroke-miterlimit="10" stroke-linecap="round"/>
<path d="M164.381 107.755L158.516 104.076" stroke="#C9E6E8" stroke-miterlimit="10" stroke-linecap="round"/>
<g filter="url(#filter2_f)">
<ellipse cx="167.634" cy="144.658" rx="13.734" ry="2.65819" fill="black" fill-opacity="0.2" style="mix-blend-mode:multiply"/>
</g>
<path d="M155.948 132.023H178.985L175.695 147.875C175.695 147.875 167.349 150.089 159.239 147.875L155.948 132.023Z" fill="#16A8D4"/>
<g filter="url(#filter3_d)">
<path d="M144 95.088C155.508 95.088 164.837 85.703 164.837 74.1261C164.837 62.5491 155.508 53.1641 144 53.1641C132.492 53.1641 123.163 62.5491 123.163 74.1261C123.163 85.703 132.492 95.088 144 95.088Z" fill="url(#paint1_linear)"/>
</g>
<path d="M144 65.1562V135.485" stroke="#0F576D" stroke-miterlimit="10" stroke-linecap="round"/>
<path d="M144 72.5689L155.73 65.2109" stroke="#0F576D" stroke-miterlimit="10" stroke-linecap="round"/>
<path d="M144 89.0701L155.73 81.7129" stroke="#0F576D" stroke-miterlimit="10" stroke-linecap="round"/>
<path d="M144.001 82.8306L132.271 75.4727" stroke="#0F576D" stroke-miterlimit="10" stroke-linecap="round"/>
<g filter="url(#filter4_f)">
<ellipse cx="146.5" cy="152" rx="16.5" ry="3" fill="black" fill-opacity="0.2" style="mix-blend-mode:multiply"/>
</g>
<path d="M133.375 135.486H160.422L156.558 154.367C156.558 154.367 146.761 157.004 137.239 154.367L133.375 135.486Z" fill="#1E6D86"/>
<defs>
<filter id="filter0_f" x="24" y="120" width="109" height="19" filterUnits="userSpaceOnUse" color-interpolation-filters="sRGB">
<feFlood flood-opacity="0" result="BackgroundImageFix"/>
<feBlend mode="normal" in="SourceGraphic" in2="BackgroundImageFix" result="shape"/>
<feGaussianBlur stdDeviation="2.5" result="effect1_foregroundBlur"/>
</filter>
<filter id="filter1_d" x="137.201" y="77.4043" width="46.3286" height="46.3286" filterUnits="userSpaceOnUse" color-interpolation-filters="sRGB">
<feFlood flood-opacity="0" result="BackgroundImageFix"/>
<feColorMatrix in="SourceAlpha" type="matrix" values="0 0 0 0 0 0 0 0 0 0 0 0 0 0 0 0 0 0 127 0"/>
<feOffset dx="-4"/>
<feGaussianBlur stdDeviation="2.5"/>
<feColorMatrix type="matrix" values="0 0 0 0 0 0 0 0 0 0 0 0 0 0 0 0 0 0 0.2 0"/>
<feBlend mode="multiply" in2="BackgroundImageFix" result="effect1_dropShadow"/>
<feBlend mode="normal" in="SourceGraphic" in2="effect1_dropShadow" result="shape"/>
</filter>
<filter id="filter2_f" x="150.9" y="139" width="33.468" height="11.3164" filterUnits="userSpaceOnUse" color-interpolation-filters="sRGB">
<feFlood flood-opacity="0" result="BackgroundImageFix"/>
<feBlend mode="normal" in="SourceGraphic" in2="BackgroundImageFix" result="shape"/>
<feGaussianBlur stdDeviation="1.5" result="effect1_foregroundBlur"/>
</filter>
<filter id="filter3_d" x="109.163" y="43.1641" width="61.6743" height="61.924" filterUnits="userSpaceOnUse" color-interpolation-filters="sRGB">
<feFlood flood-opacity="0" result="BackgroundImageFix"/>
<feColorMatrix in="SourceAlpha" type="matrix" values="0 0 0 0 0 0 0 0 0 0 0 0 0 0 0 0 0 0 127 0"/>
<feOffset dx="-4"/>
<feGaussianBlur stdDeviation="5"/>
<feColorMatrix type="matrix" values="0 0 0 0 0 0 0 0 0 0 0 0 0 0 0 0 0 0 0.2 0"/>
<feBlend mode="multiply" in2="BackgroundImageFix" result="effect1_dropShadow"/>
<feBlend mode="normal" in="SourceGraphic" in2="effect1_dropShadow" result="shape"/>
</filter>
<filter id="filter4_f" x="127" y="146" width="39" height="12" filterUnits="userSpaceOnUse" color-interpolation-filters="sRGB">
<feFlood flood-opacity="0" result="BackgroundImageFix"/>
<feBlend mode="normal" in="SourceGraphic" in2="BackgroundImageFix" result="shape"/>
<feGaussianBlur stdDeviation="1.5" result="effect1_foregroundBlur"/>
</filter>
<linearGradient id="paint0_linear" x1="148.544" y1="91.6465" x2="179.34" y2="110.622" gradientUnits="userSpaceOnUse">
<stop stop-color="#24B2DD"/>
<stop offset="0.994131" stop-color="#14A6D2"/>
</linearGradient>
<linearGradient id="paint1_linear" x1="125.852" y1="63.8297" x2="161.294" y2="85.5383" gradientUnits="userSpaceOnUse">
<stop stop-color="#2A8FAF"/>
<stop offset="0.994131" stop-color="#1E6D86"/>
</linearGradient>
</defs>
</svg>
