<svg width="147" height="87" viewBox="0 0 147 87" fill="none" xmlns="http://www.w3.org/2000/svg">
  <path d="M20.5073 63.4515V55.918H24.9538V56.6227H21.3334V59.1501H23.909V59.8548H21.3334V62.7467H25.1239V63.4515H20.5073Z" fill="black"/>
  <path d="M26.4604 63.4515V55.918H27.651L31.1256 61.799V55.918H31.9031V63.4515H31.2471L27.238 56.7685V63.4515H26.4604Z" fill="black"/>
  <path d="M33.8228 63.4515V55.918H38.2692V56.6227H34.6489V59.1501H37.2244V59.8548H34.6489V62.7467H38.4393V63.4515H33.8228Z" fill="black"/>
  <path d="M39.8003 63.4515V55.918H41.9142C42.959 55.918 43.7365 56.0881 44.2224 56.404C44.7084 56.7199 44.9513 57.2303 44.9513 57.9107C44.9513 58.3967 44.8299 58.8099 44.5626 59.1258C44.2953 59.4417 43.9066 59.6847 43.3963 59.8305L45.17 63.4515H44.2224L42.5702 60.025H40.6264V63.4515H39.8003ZM41.9142 56.5984H40.6264V59.3202H41.8899C42.6674 59.3202 43.2262 59.223 43.5664 59.0043C43.9066 58.7856 44.0766 58.4453 44.0766 57.9593C44.0766 57.449 43.9309 57.1088 43.615 56.89C43.2991 56.7199 42.7403 56.5984 41.9142 56.5984Z" fill="black"/>
  <path d="M51.0493 63.4499L51.025 62.6237C50.7821 62.9396 50.5148 63.1826 50.1746 63.3527C49.8588 63.4985 49.47 63.5957 49.0326 63.5957C48.1336 63.5957 47.4047 63.2555 46.8702 62.5508C46.3356 61.8703 46.0684 60.9226 46.0684 59.7318C46.0684 58.4924 46.3356 57.5203 46.8459 56.8399C47.3804 56.1594 48.1093 55.7949 49.0569 55.7949C49.713 55.7949 50.2718 55.9893 50.7092 56.3539C51.1465 56.7184 51.4624 57.2773 51.6811 58.0064L50.8307 58.1765C50.6849 57.6175 50.4662 57.2044 50.1503 56.9371C49.8588 56.6698 49.47 56.524 49.0326 56.524C48.3523 56.524 47.8421 56.7913 47.4776 57.3502C47.1131 57.8849 46.9431 58.6868 46.9431 59.6832C46.9431 60.6795 47.1374 61.4815 47.5019 62.0404C47.8907 62.5994 48.4009 62.891 49.0812 62.891C49.6401 62.891 50.0774 62.7209 50.4176 62.405C50.7578 62.089 50.9036 61.6273 50.9036 61.0684V60.5094H49.1541V59.7804H51.754V63.4499H51.0493Z" fill="black"/>
  <path d="M54.7429 63.4515V60.268L52.459 55.918H53.358L55.156 59.3931L56.954 55.918H57.8773L55.5691 60.268V63.4515H54.7429Z" fill="black"/>
  <path d="M62.1777 63.4515V55.918H66.5999V56.6227H63.0038V59.1258H65.6766V59.8305H63.0038V63.4515H62.1777Z" fill="black"/>
  <path d="M67.2563 59.6841C67.2563 58.4933 67.5236 57.5455 68.0825 56.8408C68.617 56.136 69.3459 55.7715 70.245 55.7715C71.144 55.7715 71.8729 56.136 72.4074 56.8165C72.942 57.5212 73.2093 58.469 73.2093 59.6598C73.2093 60.8505 72.942 61.7983 72.4074 62.503C71.8729 63.2078 71.144 63.5723 70.245 63.5723C69.3459 63.5723 68.617 63.2321 68.0825 62.503C67.5236 61.8226 67.2563 60.8748 67.2563 59.6841ZM68.1068 59.6841C68.1068 60.6804 68.3011 61.4581 68.6656 62.017C69.0544 62.5759 69.5646 62.8433 70.245 62.8433C70.9253 62.8433 71.4355 62.5516 71.8243 62.017C72.2131 61.4581 72.3831 60.6804 72.3831 59.6841C72.3831 58.6877 72.1888 57.91 71.8243 57.3511C71.4355 56.7922 70.9253 56.5248 70.245 56.5248C69.5646 56.5248 69.0544 56.7922 68.6656 57.3511C68.2769 57.8857 68.1068 58.6634 68.1068 59.6841Z" fill="black"/>
  <path d="M74.6909 55.918H75.517V60.7783C75.517 61.1185 75.5413 61.3858 75.5656 61.556C75.5899 61.7261 75.6385 61.8719 75.7114 62.0177C75.8572 62.285 76.0759 62.5037 76.3674 62.6495C76.659 62.7953 76.9992 62.8683 77.4122 62.8683C77.8253 62.8683 78.1655 62.7953 78.457 62.6495C78.7486 62.5037 78.9673 62.285 79.1131 62.0177C79.186 61.8719 79.2346 61.7261 79.2588 61.5317C79.2831 61.3615 79.3074 61.0456 79.3074 60.6568V55.918H80.1336V60.9241C80.1336 61.799 79.8906 62.4551 79.4289 62.9168C78.9673 63.3786 78.2869 63.5973 77.3879 63.5973C76.4889 63.5973 75.8086 63.3786 75.3713 62.9168C74.9096 62.4794 74.6909 61.799 74.6909 60.9241V55.918Z" fill="black"/>
  <path d="M82.126 63.4515V55.918H83.3166L86.7911 61.799V55.918H87.5686V63.4515H86.9126L82.9035 56.7685V63.4515H82.126Z" fill="black"/>
  <path d="M89.5122 63.4515V55.918H91.3102C91.8934 55.918 92.355 55.9666 92.7195 56.0638C93.084 56.161 93.3998 56.3068 93.6914 56.5255C94.1044 56.8414 94.4446 57.2789 94.6633 57.8135C94.882 58.3481 95.0035 58.98 95.0035 59.6847C95.0035 60.9241 94.6876 61.8719 94.0316 62.5037C93.3755 63.1356 92.4279 63.4515 91.1158 63.4515H89.5122ZM91.1158 56.5984H90.3383V62.6981H91.0187C91.5775 62.6981 92.0392 62.6495 92.355 62.5766C92.6952 62.5037 92.9625 62.3579 93.2054 62.1878C93.5213 61.9448 93.7643 61.6046 93.9344 61.1671C94.1044 60.7297 94.1773 60.2437 94.1773 59.6847C94.1773 59.0772 94.1044 58.5668 93.9344 58.1294C93.7643 57.692 93.5213 57.3518 93.2054 57.0844C92.9868 56.9143 92.7195 56.7928 92.4279 56.6956C92.112 56.647 91.6747 56.5984 91.1158 56.5984Z" fill="black"/>
  <path d="M95.7568 63.4515L98.0894 55.918H99.3529L101.661 63.4515H100.786L100.106 61.0942H97.2876L96.6315 63.4515H95.7568ZM97.5063 60.4138H99.8874L98.7697 56.4769H98.6482L97.5063 60.4138Z" fill="black"/>
  <path d="M103.483 63.4504V56.6216H101.272V55.8926H106.52V56.6216H104.309V63.4504H103.483Z" fill="black"/>
  <path d="M107.857 63.4515V55.918H108.707V63.4515H107.857Z" fill="black"/>
  <path d="M110.238 59.6841C110.238 58.4933 110.505 57.5455 111.04 56.8408C111.574 56.136 112.303 55.7715 113.202 55.7715C114.101 55.7715 114.83 56.136 115.365 56.8165C115.899 57.5212 116.166 58.469 116.166 59.6598C116.166 60.8505 115.899 61.7983 115.365 62.503C114.83 63.2078 114.101 63.5723 113.202 63.5723C112.303 63.5723 111.574 63.2321 111.04 62.503C110.505 61.8226 110.238 60.8748 110.238 59.6841ZM111.088 59.6841C111.088 60.6804 111.283 61.4581 111.647 62.017C112.036 62.5759 112.546 62.8433 113.226 62.8433C113.882 62.8433 114.417 62.5516 114.806 62.017C115.194 61.4581 115.365 60.6804 115.365 59.6841C115.365 58.6877 115.17 57.91 114.806 57.3511C114.417 56.7922 113.907 56.5248 113.226 56.5248C112.57 56.5248 112.036 56.7922 111.647 57.3511C111.283 57.8857 111.088 58.6634 111.088 59.6841Z" fill="black"/>
  <path d="M117.698 63.4515V55.918H118.888L122.363 61.799V55.918H123.14V63.4515H122.484L118.475 56.7685V63.4515H117.698Z" fill="black"/>
  <path d="M37.9771 71.0811C38.2929 70.9596 38.5845 70.7652 38.8275 70.4736C39.0704 70.182 39.2648 69.9146 39.4349 69.6473C39.5807 69.38 39.7751 69.0155 40.018 68.5781L40.261 68.1406C40.6255 68.3107 40.9899 68.4809 41.3787 68.5781L41.0385 68.9912C40.7713 69.3071 40.2367 70.0119 39.4349 71.0811L42.0833 70.9353C41.8889 70.668 41.6703 70.4007 41.4516 70.1577L41.2329 69.9146C41.4273 69.7931 41.7189 69.5987 42.1076 69.3071L43.7842 71.6644C43.5412 71.7859 43.1767 71.956 42.7394 72.2233L42.6665 72.0775L42.5936 71.9074L42.4964 71.713L40.5283 71.8831C39.605 71.956 38.8761 72.0775 38.3415 72.199C38.3172 72.0775 38.2686 71.956 38.2443 71.8345C38.1714 71.7373 38.0985 71.47 37.9771 71.0811ZM38.5602 79.2465C38.5602 78.9306 38.5845 78.6389 38.5845 78.3959C38.6088 78.1529 38.6088 77.9342 38.6088 77.7884V73.8515C38.6088 73.7786 38.6088 73.5842 38.5845 73.2926L38.5602 72.6607C39.0461 72.685 39.4835 72.7093 39.848 72.7093H41.646C41.9861 72.7093 42.4478 72.685 42.9823 72.6607C42.958 72.9524 42.9337 73.1711 42.9337 73.3169C42.9337 73.4627 42.9337 73.6571 42.9337 73.9001V78.0557C42.9337 78.2015 42.9337 78.3716 42.9094 78.5417C42.8851 78.7118 42.7637 78.8576 42.545 78.9792C42.3263 79.1007 41.8647 79.1979 41.1357 79.2465C41.1114 78.9063 41.0628 78.6875 41.0385 78.5903C41.0142 78.4688 40.917 78.2744 40.7956 77.9828C41.0385 78.0557 41.3058 78.08 41.5731 78.08C41.8161 78.08 41.9618 78.0314 41.9861 77.9342C42.0104 77.837 42.0104 77.7398 42.0104 77.6426V76.9378H39.5564V77.8613C39.5564 78.2258 39.5564 78.4445 39.5564 78.5417L39.605 79.2465C39.3134 79.2222 39.119 79.1979 39.0461 79.1979C38.9975 79.1979 38.8275 79.2222 38.5602 79.2465ZM39.5564 74.4105H42.0104V73.5356H39.5564V74.4105ZM39.6293 76.1116H42.0347V75.2367H39.605L39.6293 76.1116ZM44.6103 68.1892C44.7561 68.1892 44.9504 68.1892 45.1934 68.1649C45.1691 68.4565 45.1448 68.6996 45.1448 68.8697C45.1448 69.0398 45.1448 69.2342 45.1448 69.4772V70.182C45.9466 69.8417 46.5784 69.5015 47.04 69.1613L47.4045 68.894C47.5746 69.1613 47.8418 69.4529 48.2063 69.8174L47.7689 69.9876C47.3559 70.1334 46.4812 70.5222 45.1448 71.1054V71.6158C45.1448 71.7373 45.1448 71.8588 45.1691 71.9317C45.1934 72.0289 45.3149 72.0775 45.5093 72.1018C45.6065 72.1261 45.7523 72.1261 45.9709 72.1261C46.1896 72.1261 46.3597 72.1261 46.5298 72.1261C46.6756 72.1261 46.797 72.1261 46.8699 72.1261C47.1372 72.1018 47.3073 72.0289 47.3802 71.9074C47.4531 71.7859 47.526 71.4213 47.5989 70.8624C47.7204 71.0082 47.8175 71.1297 47.939 71.2269C48.0605 71.3241 48.3035 71.4456 48.668 71.5672C48.5951 71.7616 48.5222 71.9803 48.4736 72.1747C48.4007 72.3691 48.2792 72.5878 48.1334 72.7822C47.9633 72.9767 47.6475 73.0982 47.1372 73.0982C46.7727 73.1225 46.3111 73.1225 45.7523 73.0982C44.9261 73.0982 44.4645 72.9767 44.3187 72.7822C44.1972 72.5878 44.1243 72.3691 44.1243 72.1504V69.5015C44.1243 69.137 44.1243 68.9183 44.1243 68.8211L44.0757 68.1649C44.3187 68.1892 44.5131 68.1892 44.6103 68.1892ZM44.6346 73.3655C44.6832 73.3655 44.8775 73.3412 45.2177 73.3169C45.1934 73.6085 45.1691 73.8515 45.1691 74.0216C45.1691 74.1917 45.1691 74.3861 45.1691 74.6292V75.4797C46.0195 75.1395 46.6999 74.775 47.2344 74.4105L47.5017 74.216C47.7689 74.6049 48.0119 74.8965 48.2306 75.1152L47.8175 75.3096C47.7447 75.3339 47.5746 75.4068 47.3073 75.5283C47.0157 75.6498 46.3111 75.9414 45.1691 76.4032V77.4725V77.6912C45.1691 77.7884 45.1934 77.837 45.2663 77.8856C45.3392 77.9342 45.7037 77.9342 46.4326 77.9342C46.8699 77.9342 47.1129 77.9342 47.2101 77.9099C47.283 77.8856 47.3559 77.8613 47.4045 77.7884C47.4531 77.7398 47.4774 77.6426 47.526 77.4968C47.5503 77.3509 47.5746 77.278 47.5989 77.2537L47.6232 76.9378L47.6718 76.5247C47.8904 76.7677 48.0362 76.9378 48.1577 76.9864C48.2792 77.0593 48.4736 77.1322 48.7651 77.2294C48.7165 77.3752 48.6194 77.5697 48.5222 77.837C48.425 78.1043 48.3035 78.323 48.2063 78.4688C48.1091 78.6389 47.9147 78.7361 47.6475 78.809C47.3802 78.8819 47.0157 78.9063 46.5784 78.9063C45.4607 78.9063 44.8047 78.8577 44.6103 78.7847C44.4159 78.7118 44.2944 78.6146 44.2458 78.5417C44.1972 78.4445 44.1729 78.3473 44.1486 78.2501C44.1243 78.1529 44.1243 78.08 44.1243 78.0314V74.7021C44.1243 74.3375 44.1243 74.0945 44.1243 73.9973L44.0757 73.3169C44.343 73.3412 44.5374 73.3655 44.6346 73.3655Z" fill="black"/>
  <path d="M52.021 71.8842C52.2883 71.5439 52.5069 71.2523 52.6527 70.985L54.8152 72.1758C54.5236 72.4917 54.3536 72.7104 54.305 72.8319L54.1349 73.1965L53.8433 72.9291C53.7947 72.8805 53.6003 72.759 53.2602 72.5403C52.92 72.3216 52.6284 72.1515 52.3369 72.0057L52.021 71.8842ZM52.2154 78.0325L52.3612 77.6923C52.4826 77.3764 52.5798 77.1333 52.6284 77.0118C52.677 76.8903 52.7742 76.5501 52.92 76.0155C53.0658 75.4808 53.1873 74.9462 53.3088 74.3872L53.4788 73.4152C53.6489 73.5853 53.7947 73.7311 53.8919 73.8283C54.0134 73.9255 54.1835 73.9984 54.4021 74.0713L54.305 74.4845C54.2321 74.7518 54.2078 74.9462 54.1835 75.0434L54.0377 75.6509C54.0134 75.7238 53.9891 75.8453 53.9405 76.0398C53.8919 76.2342 53.8433 76.4529 53.7947 76.6959C53.7461 76.9389 53.6975 77.1819 53.6489 77.425C53.6003 77.668 53.5517 77.8624 53.5274 78.0082C53.5031 78.154 53.4788 78.2512 53.4788 78.2998L53.4302 78.7859C52.92 78.4456 52.5312 78.2026 52.2154 78.0325ZM52.677 69.0166C52.92 68.7979 53.0658 68.6277 53.1387 68.5062L53.3331 68.166L55.3498 69.4783C55.204 69.5998 55.1068 69.6727 55.0582 69.7456L54.8395 70.0615L54.5965 70.3775L54.3536 70.1588C53.8676 69.7456 53.406 69.4297 53.0172 69.1867L52.677 69.0166ZM53.8433 78.3241L54.1592 77.911C54.3293 77.6923 54.4507 77.4736 54.5479 77.3034C54.6451 77.1333 54.7423 76.9146 54.8395 76.623C54.9367 76.3314 55.0582 75.9669 55.1797 75.5051C55.3012 75.0434 55.3741 74.5088 55.4226 73.9255C55.4469 73.3423 55.4712 72.8076 55.4955 72.3459V71.4224C55.4955 70.985 55.4955 70.7177 55.4955 70.6448C55.4955 70.5719 55.4955 70.4261 55.4955 70.2317C55.4955 70.0372 55.4955 69.8671 55.4955 69.7456L55.4469 68.7007C56.103 68.7493 56.4917 68.7493 56.6375 68.7493H61.2298L62.0559 68.725L62.8577 68.7007C62.8334 68.8465 62.8091 68.968 62.8091 69.0652C62.8091 69.1381 62.8091 69.211 62.8091 69.2839C62.8091 69.3325 62.8334 69.5269 62.8577 69.8428C62.1288 69.7942 61.5699 69.7699 61.2541 69.7699H60.0878L59.699 70.9607H61.0597C61.4241 70.9607 61.7886 70.9364 62.2017 70.9121C62.1774 71.1308 62.1531 71.3252 62.1531 71.4467C62.1531 71.5683 62.1531 71.7384 62.1531 71.9328V74.4116C62.1531 74.6789 62.1531 74.849 62.1531 74.9219L62.2017 75.4322C61.5456 75.3836 61.1326 75.3836 61.0111 75.3836H60.0635V78.2512C60.0635 78.5185 60.0392 78.6886 59.9906 78.8101C59.942 78.9074 59.8691 79.0046 59.7962 79.0775C59.699 79.1504 59.456 79.2233 59.0673 79.3205C58.6785 79.3934 58.3626 79.442 58.144 79.442C58.144 79.4177 58.144 79.3691 58.144 79.2962C58.144 79.2233 58.144 79.1261 58.1197 78.9803C58.0954 78.8345 58.0711 78.7129 57.9982 78.6157L57.7552 78.2269C57.9982 78.2512 58.2898 78.2512 58.6299 78.2512C58.9215 78.2512 59.0916 78.2026 59.1159 78.0811C59.1402 77.9596 59.1645 77.7895 59.1645 77.5708V75.3593H58.3869C58.2412 75.3593 57.8767 75.3836 57.2936 75.4079C57.3179 75.1892 57.3422 74.9948 57.3422 74.8733C57.3422 74.7518 57.3422 74.5817 57.3422 74.3872V71.8842C57.3422 71.6169 57.3422 71.4467 57.3422 71.3738L57.2936 70.8878C57.6823 70.9364 58.0468 70.9364 58.3869 70.9364H58.8243L59.0916 69.7456H56.5646C56.5646 70.1345 56.5646 70.4261 56.5646 70.5962V71.9085L56.5403 72.5646L56.516 73.7068C56.4917 74.1928 56.4431 74.6546 56.3702 75.0677C56.2974 75.4808 56.2488 75.7967 56.2002 75.9912C56.1516 76.1856 56.0544 76.5258 55.8843 76.9875C55.7142 77.4493 55.5927 77.7895 55.4955 77.9839C55.3983 78.1783 55.2526 78.4942 55.0582 78.8831L54.8638 79.2719C54.7666 79.1261 54.6694 78.9803 54.5722 78.8588C54.4022 78.7129 54.1835 78.5428 53.8433 78.3241ZM55.7871 78.0568L56.0544 77.7652C56.4188 77.4007 56.6618 77.1333 56.8076 76.9389C56.9534 76.7688 57.1235 76.4772 57.3664 76.0884L57.5365 75.7724C57.7552 75.9182 58.0468 76.0398 58.4112 76.1613L58.2169 76.4529C57.5851 77.3521 57.1721 77.911 57.002 78.1783L56.7833 78.5185C56.6618 78.4213 56.5646 78.3727 56.4917 78.3241C56.3945 78.2998 56.1759 78.2026 55.7871 78.0568ZM58.2169 72.6861H61.0111V71.7384H58.2169V72.6861ZM58.2169 74.4845H61.0354V73.5124H58.2169V74.4845ZM61.3998 75.8939L63.0278 77.911C62.639 78.0811 62.2988 78.2998 62.0073 78.4942L61.8372 78.154C61.7157 77.8867 61.5213 77.5951 61.3026 77.2791C61.084 76.9632 60.8896 76.7202 60.7438 76.5258L60.598 76.3557C60.8167 76.2585 61.1083 76.1127 61.3998 75.8939Z" fill="black"/>
  <path d="M66.1624 76.5009C66.6484 76.4036 67.1586 76.2092 67.6689 75.9176C68.1791 75.626 68.6165 75.2615 68.9809 74.7754H67.7904C67.4259 74.7754 66.94 74.7997 66.3568 74.8483C66.3811 74.7025 66.3811 74.6053 66.3811 74.5324C66.3811 74.4595 66.3811 74.3866 66.3811 74.338C66.3811 74.2894 66.3811 74.1193 66.3325 73.8763C66.94 73.9249 67.4259 73.9492 67.7904 73.9492H68.5436V70.231H67.9847C67.596 70.231 67.2072 70.2553 66.8428 70.3039C66.8671 70.1824 66.8671 70.0852 66.8671 70.0366C66.8671 69.988 66.8671 69.9394 66.8671 69.8665C66.8671 69.8179 66.8428 69.6721 66.8428 69.4291C67.4016 69.4777 67.7904 69.502 67.9847 69.502H68.5679V69.0888C68.5679 68.9187 68.5679 68.7972 68.5679 68.7243L68.5193 68.2383C68.8595 68.2626 69.0538 68.2869 69.1024 68.2869C69.151 68.2869 69.2968 68.2626 69.5884 68.2383C69.5641 68.4327 69.5641 68.6028 69.5398 68.7486C69.5398 68.8944 69.5155 69.0159 69.5155 69.0888V69.502H73.8161V69.1131C73.8161 68.8944 73.8161 68.7486 73.8161 68.6757L73.7676 68.2383C74.0834 68.2626 74.2535 68.2869 74.3264 68.2869C74.375 68.2869 74.5937 68.2626 74.9338 68.2383C74.9095 68.4327 74.8852 68.6028 74.8852 68.7C74.8852 68.7972 74.8852 68.943 74.8852 69.1131V69.4777H75.4441C75.6385 69.4777 76.0758 69.4534 76.7076 69.4048C76.6833 69.5506 76.659 69.6478 76.659 69.6964C76.659 69.7693 76.659 69.8179 76.6347 69.8665C76.6347 69.9151 76.659 70.0609 76.6833 70.2796C76.2702 70.231 75.8328 70.2067 75.4198 70.2067H74.8609V73.9249H75.5413C75.9057 73.9249 76.416 73.9006 77.0477 73.852C77.0234 73.9978 76.9991 74.1193 76.9991 74.1922C76.9991 74.2651 76.9991 74.338 76.9991 74.3866C76.9991 74.4352 77.0234 74.581 77.0477 74.8483C76.416 74.7997 75.9057 74.7754 75.5413 74.7754H74.0591C74.5937 75.5045 75.1768 75.9662 75.8085 76.1363C76.416 76.3064 76.8776 76.4036 77.1692 76.4036H77.5823C77.2421 76.671 77.0234 76.8897 76.9019 77.0355C76.7804 77.2056 76.659 77.4 76.5375 77.6187L76.3188 77.5215C75.6628 77.2299 74.9824 76.8411 74.2535 76.3307C74.2292 76.428 74.2049 76.5009 74.2049 76.5495C74.2049 76.5981 74.2049 76.6467 74.1806 76.6953C74.1806 76.7439 74.2049 76.8654 74.2292 77.0355C73.7676 76.9869 73.3788 76.9869 73.0143 76.9869H72.091V78.0562H74.2535C74.7881 78.0562 75.4927 78.0319 76.3917 77.9833C76.3674 78.2749 76.3431 78.4207 76.3674 78.4936L76.3917 79.0039C75.5656 78.931 74.8609 78.9067 74.2535 78.9067H68.7137C68.2277 78.9067 67.596 78.931 66.8185 78.9796C66.8428 78.8581 66.8428 78.7366 66.8428 78.6637C66.8428 78.5908 66.8428 78.5179 66.8428 78.4936C66.8428 78.445 66.8185 78.2749 66.7942 77.9833C67.5231 78.0319 68.1548 78.0562 68.6651 78.0562H71.1191V76.9869H69.9771C69.637 76.9869 69.2482 77.0112 68.8595 77.0355C68.8838 76.914 68.8838 76.8168 68.8838 76.7682C68.8838 76.6953 68.8838 76.6467 68.8838 76.5981C68.8838 76.5495 68.8595 76.4036 68.8352 76.1363C68.3006 76.6224 67.6932 77.0598 67.0614 77.4243L66.8671 77.5458C66.6727 77.2785 66.5755 77.1327 66.5269 77.1084C66.4783 77.0598 66.3568 76.9626 66.1138 76.7682L65.8223 76.5495L66.1624 76.5009ZM68.9081 76.1363C69.2725 76.1849 69.6127 76.1849 69.9528 76.1849H71.1434V75.7718C71.1434 75.7232 71.1434 75.626 71.1191 75.4073L71.0948 74.9942C71.3864 75.0428 71.5565 75.0428 71.6294 75.0428C71.678 75.0428 71.8723 75.0185 72.1639 74.9942C72.1396 75.1643 72.1153 75.3101 72.1153 75.383C72.1153 75.4802 72.1153 75.6017 72.1153 75.7475V76.1849H72.99C73.3059 76.1849 73.6461 76.1606 74.0105 76.1363C73.5975 75.7232 73.2816 75.2858 73.0386 74.7997H70.2201C69.6856 75.383 69.2725 75.8204 68.9081 76.1363ZM69.4912 70.9844H73.7919V70.2553H69.4912V70.9844ZM69.4912 72.4182H73.7919V71.7134H69.4912V72.4182ZM69.4912 73.9735H73.7919V73.1472H69.4912V73.9735Z" fill="black"/>
  <path d="M80.1816 72.5155L80.5461 72.3454C81.1535 72.0781 81.761 71.7379 82.3684 71.349C83.0001 70.9602 83.5347 70.4499 83.9963 69.818C84.458 69.1862 84.7982 68.6273 84.9682 68.1655L85.0897 67.8496C85.5271 67.9954 85.9644 68.1412 86.4261 68.2627L86.3532 68.5058C86.6448 69.1862 87.2036 69.8666 88.0297 70.5228C88.8558 71.1789 89.9006 71.6164 91.1884 71.8594L91.5529 71.9323C91.3342 72.1753 91.1641 72.394 91.0912 72.5641C90.994 72.7342 90.8968 72.953 90.7996 73.2203L90.5324 73.0988C89.7063 72.7342 89.1231 72.4669 88.8315 72.2968C88.8315 72.4183 88.8315 72.5155 88.8315 72.5884C88.8315 72.6613 88.8315 72.7099 88.8315 72.7342C88.8315 72.7828 88.8558 72.9044 88.8801 73.1231C88.1026 73.0745 87.641 73.0745 87.5195 73.0745H86.2074V74.5083H88.0297C88.3456 74.5083 88.9044 74.484 89.7063 74.4354C89.682 74.5812 89.6577 74.7027 89.6577 74.7999C89.6577 74.8728 89.6577 74.9457 89.6577 75.0186C89.6577 75.0672 89.682 75.2616 89.7063 75.5775C88.9044 75.5289 88.3456 75.5046 88.0054 75.5046H86.2074V77.8862H87.0578C87.3737 77.2058 87.5924 76.6468 87.7139 76.2337L87.9082 75.5775C88.297 75.7963 88.6858 75.9907 89.0988 76.1365L88.6858 76.744L88.3942 77.2544L88.0054 77.8862H88.4185C89.0259 77.8862 89.8035 77.8619 90.7996 77.8133C90.7754 77.9834 90.751 78.0806 90.751 78.1292C90.751 78.1778 90.751 78.2507 90.751 78.3965V78.5909L90.7753 78.9798C89.5605 78.9069 88.7587 78.8826 88.4185 78.8826H83.2431C82.8787 78.8826 82.0768 78.9069 80.862 78.9798C80.8863 78.834 80.8863 78.7125 80.8863 78.6152C80.8863 78.518 80.8863 78.4451 80.8863 78.3965C80.8863 78.3479 80.862 78.1535 80.8377 77.8133C81.8339 77.8619 82.6357 77.8862 83.2188 77.8862H85.1383V75.5046H83.5833C83.2431 75.5046 82.6843 75.5289 81.8825 75.5775C81.9068 75.4317 81.9068 75.3102 81.9068 75.213V75.0186C81.9068 74.8728 81.9068 74.7999 81.9068 74.7999L81.8825 74.4597C82.66 74.5083 83.2431 74.5326 83.5833 74.5326H85.1626V73.0988H83.9721C83.8263 73.0988 83.3889 73.1231 82.6843 73.1474C82.7086 72.9773 82.7329 72.8558 82.7329 72.7828V72.637V72.4183C82.3927 72.6613 81.9554 72.953 81.3965 73.3175L81.1292 73.4876C80.9592 73.2689 80.8134 73.0745 80.7162 72.953C80.5947 72.7828 80.4003 72.6613 80.1816 72.5155ZM82.4413 76.0636C82.7815 75.9421 83.0973 75.7963 83.4132 75.6261L84.4094 77.2058C84.0449 77.3516 83.7048 77.4974 83.3646 77.6675L83.2431 77.303C83.1459 77.0599 82.9759 76.7926 82.7572 76.4767L82.4413 76.0636ZM83.2188 72.0052C83.5833 72.0538 83.9235 72.0538 84.2636 72.0538H87.2765C87.6167 72.0538 87.9568 72.0295 88.3456 72.0052C87.6653 71.5192 87.1307 71.0817 86.742 70.6686C86.3532 70.2555 86.013 69.7694 85.6729 69.1619C85.3813 69.5993 85.0654 70.0125 84.7496 70.4256C84.4337 70.8387 83.9235 71.3733 83.2188 72.0052Z" fill="black"/>
  <path d="M94.3955 72.3695L94.6385 72.2966C95.5618 71.9807 96.4851 71.3974 97.4084 70.5469C98.3317 69.7206 98.9877 68.9187 99.4008 68.1896L99.6195 67.8008C100.008 68.0195 100.421 68.2139 100.859 68.3597L100.591 68.6513C100.932 69.2103 101.515 69.8178 102.317 70.5226C103.118 71.2273 104.163 71.7134 105.427 71.9564L105.645 72.005C105.451 72.1751 105.281 72.3452 105.184 72.491C105.086 72.6611 104.965 72.8798 104.819 73.1958L104.503 73.0499C103.361 72.491 102.511 72.005 101.976 71.5432C101.442 71.1058 101.029 70.717 100.761 70.3768C100.494 70.0365 100.203 69.672 99.9353 69.2832C99.3765 69.915 98.9148 70.4254 98.5504 70.7899C98.1616 71.1787 97.7 71.5918 97.1411 72.0536C97.5299 72.1022 97.9186 72.1265 98.3074 72.1265H101.515C101.758 72.1265 102.122 72.1022 102.657 72.0779C102.632 72.248 102.608 72.3452 102.608 72.4181C102.608 72.491 102.608 72.5639 102.608 72.6854C102.608 72.7826 102.632 72.9527 102.657 73.1958C102.195 73.1472 101.806 73.1228 101.49 73.1228H98.2831C97.9186 73.1228 97.5299 73.1472 97.0925 73.1958C97.1168 73.0256 97.1168 72.9041 97.1168 72.8312V72.6125C97.1168 72.491 97.1168 72.4181 97.1168 72.4181L97.0925 72.0779C96.7524 72.3209 96.4122 72.5639 96.0963 72.8069C95.7805 73.0256 95.5861 73.1715 95.5132 73.2201L95.3431 73.3659C95.2216 73.0499 94.8815 72.7097 94.3955 72.3695ZM96.1935 74.3136C96.4608 74.3379 96.6552 74.3379 96.801 74.3379H102.948C103.021 74.3379 103.604 74.3136 104.722 74.265C104.673 74.4108 104.649 74.5323 104.649 74.6053C104.649 74.6782 104.649 74.7511 104.649 74.8483C104.649 74.9455 104.649 75.0184 104.673 75.0427L104.722 75.4315C103.969 75.3829 103.386 75.3586 102.948 75.3586H99.4251C99.6195 75.5287 99.8382 75.6745 100.081 75.8203L99.6438 76.1363C99.4494 76.2821 99.1821 76.5008 98.8662 76.7924C98.5504 77.084 98.1859 77.3999 97.7486 77.7159L97.4084 77.9832C98.7691 77.9346 100.3 77.8374 101.976 77.7402C101.612 77.3756 101.345 77.1326 101.199 77.0111L100.786 76.6709C101.126 76.5008 101.442 76.2821 101.709 76.0634C102.657 77.0111 103.58 77.9346 104.479 78.8337C104.066 79.0525 103.701 79.2955 103.313 79.5628L103.143 79.2712L102.9 78.9067L102.681 78.5664L100.616 78.6879C98.8906 78.7851 97.8215 78.858 97.3841 78.931C96.9467 78.9796 96.5337 79.0525 96.1206 79.1497C96.0963 79.0039 96.072 78.8824 96.0234 78.7365C95.9991 78.5907 95.8777 78.3477 95.7319 77.9832C96.0477 77.8617 96.4365 77.6673 96.8739 77.3756C97.3112 77.1083 97.9672 76.4279 98.8177 75.3343H96.801C96.4365 75.3343 95.9263 75.3586 95.2459 75.4072C95.2459 75.2614 95.2702 75.1156 95.2702 75.0184C95.2702 74.9212 95.2702 74.8483 95.2702 74.7997V74.6053L95.2459 74.2407C95.6104 74.2893 95.9263 74.2893 96.1935 74.3136Z" fill="black"/>
  <path d="M71.5321 5.75951L68.3492 32.8559L59.8207 22.9408C59.7235 22.8193 59.5535 22.795 59.432 22.8679C59.2862 22.9408 59.2376 23.1109 59.2862 23.2567L63.514 34.7028L37.1997 23.8157C37.054 23.767 36.8839 23.8157 36.811 23.9615C36.7381 24.1073 36.7624 24.2774 36.9082 24.3746L56.1275 37.8863L30.9553 38.2022C30.7852 38.2022 30.6637 38.3237 30.6394 38.4939C30.6151 38.664 30.7366 38.8098 30.8824 38.8341L52.4829 43.6215L6.75495 48.336C6.58487 48.3603 6.46338 48.5062 6.46338 48.6763C6.46338 48.8464 6.60916 48.9679 6.77925 48.9679H43.8816L62.129 47.0481L54.3052 44.8609C54.2323 44.8366 54.1837 44.7637 54.1837 44.6908C54.1837 44.6179 54.2566 44.545 54.3295 44.545L64.7045 44.8609L56.4677 39.0771C56.3948 39.0285 56.3705 38.9313 56.4191 38.8584C56.4434 38.8098 56.492 38.7855 56.5649 38.7855C56.5892 38.7855 56.6135 38.7855 56.6378 38.7855L67.9847 43.4757L66.1624 38.5668C66.1381 38.4939 66.1624 38.421 66.2353 38.3724C66.2596 38.3481 66.2839 38.3481 66.3082 38.3481C66.3568 38.3481 66.4054 38.3724 66.4297 38.3967L70.0986 42.6494L71.4592 30.9846C71.4592 30.9117 71.5321 30.8388 71.6293 30.8388C71.7022 30.8388 71.7751 30.9117 71.7751 30.9846L73.1358 42.6494L76.8047 38.3967C76.829 38.3481 76.8776 38.3481 76.9262 38.3481C76.9505 38.3481 76.9748 38.3481 76.9991 38.3724C77.072 38.421 77.0963 38.4939 77.072 38.5668L75.2497 43.4757L86.5966 38.7855C86.6209 38.7855 86.6452 38.7855 86.6695 38.7855C86.7181 38.7855 86.7667 38.8098 86.8153 38.8584C86.8639 38.9313 86.8396 39.0285 86.7667 39.0771L78.5298 44.8609L88.9535 44.4964C89.0507 44.4964 89.1235 44.5693 89.1235 44.6665C89.1235 44.7394 89.0749 44.8123 89.0021 44.8123L81.2268 47.0238L99.7902 48.9679H136.844C137.014 48.9679 137.16 48.8464 137.16 48.6763C137.16 48.5062 137.038 48.3603 136.868 48.336L91.1888 43.6215L112.789 38.8341C112.935 38.8098 113.057 38.664 113.032 38.4939C113.008 38.3237 112.887 38.2022 112.716 38.2022L87.4956 37.8863L106.764 24.3746C106.909 24.2774 106.934 24.1073 106.861 23.9615C106.788 23.8157 106.618 23.767 106.472 23.8157L80.1092 34.7028L84.3855 23.2567C84.4341 23.1109 84.3855 22.9408 84.2397 22.8679C84.1183 22.795 83.9482 22.8193 83.8267 22.9408L75.2983 32.8559L72.1639 5.75951C72.1396 5.58939 72.0181 5.49219 71.848 5.49219C71.6779 5.49219 71.5564 5.6137 71.5321 5.75951Z" fill="black"/>
</svg>
